<svg version="1.1" id="Layer_1" xmlns="http://www.w3.org/2000/svg" xmlns:xlink="http://www.w3.org/1999/xlink" x="0px" y="0px"
	 width="100%" viewBox="0 0 1418 464" enable-background="new 0 0 1418 464" xml:space="preserve">
<path fill="#FEFEFE" opacity="1.000000" stroke="none" 
	d="
M893.000000,465.000000 
	C595.372803,465.000000 298.245544,465.000000 1.059169,465.000000 
	C1.059169,310.393341 1.059169,155.786636 1.059169,1.089964 
	C473.543945,1.089964 946.087891,1.089964 1418.815918,1.089964 
	C1418.815918,155.666489 1418.815918,310.333221 1418.815918,465.000000 
	C1243.786499,465.000000 1068.643311,465.000000 893.000000,465.000000 
M712.942932,285.475769 
	C716.312378,269.185974 716.930481,252.759338 714.694580,236.308884 
	C712.033752,216.731934 704.520569,199.660858 688.834534,186.662354 
	C666.186218,167.894485 626.703186,166.208450 606.349670,190.223862 
	C604.462219,192.450851 602.629028,194.723709 599.951843,197.967331 
	C599.951843,189.930161 599.951843,183.066116 599.951843,176.114929 
	C585.837769,176.114929 572.305603,176.114929 558.601074,176.114929 
	C558.601074,251.862549 558.601074,327.246338 558.601074,402.673035 
	C572.925171,402.673035 586.992798,402.673035 601.505737,402.673035 
	C601.505737,375.333771 601.505737,348.304077 601.505737,321.619995 
	C606.847107,326.433624 611.582581,331.969543 617.447449,335.756287 
	C637.569275,348.748169 669.718689,345.109680 688.850281,328.494446 
	C701.838745,317.214355 709.115479,302.799652 712.942932,285.475769 
M865.479370,174.949432 
	C840.091492,182.518570 827.427185,197.919876 824.514221,224.367279 
	C824.134888,227.810410 824.965210,228.742920 828.333008,228.692276 
	C839.158936,228.529419 849.991577,228.494659 860.815796,228.706299 
	C864.552979,228.779388 866.287598,227.988068 867.132385,223.857086 
	C868.885864,215.282318 873.788330,208.981750 882.934570,207.191803 
	C891.725891,205.471313 900.515076,205.602890 909.097961,208.371063 
	C916.247864,210.677094 919.305481,215.047150 919.432556,222.505112 
	C919.534546,228.497986 916.312866,233.201767 909.550598,235.328659 
	C904.352356,236.963608 898.861206,237.701675 893.473633,238.693726 
	C880.559143,241.071793 867.369141,242.423416 854.763428,245.903320 
	C833.724548,251.711288 821.948608,266.098114 819.247498,288.055359 
	C816.161743,313.139404 828.596497,334.811493 851.253235,341.372498 
	C870.605469,346.976593 889.225952,344.875885 906.106445,333.126495 
	C911.079529,329.665039 915.661621,325.641754 920.600769,321.735291 
	C921.439392,325.894867 922.274902,329.743561 922.979004,333.616180 
	C923.665588,337.392181 925.300903,339.272705 929.659851,338.941437 
	C935.788269,338.475677 941.978577,338.823608 948.142395,338.823608 
	C955.931885,338.823578 963.721375,338.823608 971.402100,338.823608 
	C972.438354,334.765991 971.878479,332.179657 968.515137,329.790741 
	C966.340088,328.245789 964.755127,325.173065 964.014587,322.480072 
	C963.062195,319.016235 962.956726,315.248077 962.941895,311.609131 
	C962.818970,281.458405 962.809753,251.307220 962.748840,221.156189 
	C962.703552,198.730789 954.167480,185.988708 933.173401,178.268021 
	C911.311279,170.228149 888.903748,169.660843 865.479370,174.949432 
M323.993835,47.516056 
	C307.709930,37.395710 291.425995,27.275362 274.089691,16.500956 
	C274.089691,27.415047 273.984283,36.681896 274.216766,45.940269 
	C274.247467,47.163387 275.764771,48.724255 276.992371,49.486313 
	C297.315674,62.102455 317.638214,74.722305 338.090668,87.127396 
	C369.604858,106.241798 401.196930,125.228180 432.822113,144.158386 
	C435.901337,146.001541 436.979034,148.103088 436.973480,151.715012 
	C436.860474,225.362305 436.888702,299.009827 436.888733,372.657288 
	C436.888733,374.281006 436.888702,375.904755 436.888702,378.090698 
	C382.451935,378.090698 328.418854,378.090698 274.359955,378.090698 
	C274.359955,386.576172 274.359955,394.489288 274.359955,402.421082 
	C338.321381,402.421082 402.003876,402.421082 465.867798,402.421082 
	C465.867798,400.173645 465.867767,398.346832 465.867767,396.520020 
	C465.867798,312.870270 465.776459,229.220245 466.020782,145.571198 
	C466.043182,137.905701 463.347046,133.149368 457.039093,129.291870 
	C412.835999,102.260468 368.732971,75.065475 323.993835,47.516056 
M998.999695,318.459625 
	C1007.696472,330.531036 1019.678528,337.440613 1033.937134,340.895905 
	C1049.691284,344.713684 1065.659180,344.952301 1081.617920,343.273651 
	C1097.804932,341.571014 1112.839233,336.873474 1124.701538,324.650055 
	C1142.535156,306.273346 1146.705078,266.558502 1113.273804,250.178391 
	C1105.120483,246.183533 1096.304077,243.334824 1087.541870,240.838852 
	C1074.450195,237.109619 1061.080444,234.367142 1047.939087,230.798752 
	C1040.452393,228.765839 1037.620728,225.087601 1037.580322,219.184845 
	C1037.542480,213.657410 1041.470215,208.269363 1048.139893,206.937744 
	C1054.577271,205.652512 1061.370239,204.962830 1067.885620,205.495621 
	C1082.210815,206.667130 1087.445679,211.813080 1090.420654,225.659195 
	C1090.478882,225.930740 1090.844360,226.136322 1090.943604,226.241913 
	C1105.267700,226.241913 1119.456299,226.241913 1133.917969,226.241913 
	C1133.561401,223.993652 1133.248535,222.206818 1132.997681,220.411331 
	C1130.005493,198.996384 1118.746704,184.230682 1098.022583,177.235596 
	C1078.620972,170.686905 1058.803223,169.679489 1038.890625,174.162476 
	C1020.455688,178.312775 1006.275024,188.637054 998.572449,206.177185 
	C990.209290,225.221710 990.568604,254.048157 1021.579163,265.713440 
	C1029.660645,268.753479 1037.975952,271.215271 1046.279297,273.611969 
	C1059.365723,277.389252 1072.618408,280.608948 1085.631592,284.614044 
	C1092.639160,286.770752 1095.204468,291.854248 1094.028564,298.507996 
	C1093.132324,303.579346 1089.524414,306.131927 1085.130981,307.719513 
	C1074.614014,311.519897 1063.875610,311.000763 1053.086792,309.074341 
	C1041.979126,307.091003 1035.008545,301.051331 1033.866699,289.408783 
	C1033.578369,286.469849 1031.963867,286.040100 1029.471191,286.056122 
	C1017.475647,286.133270 1005.478271,286.182495 993.484192,286.030273 
	C990.218933,285.988861 989.127502,286.867798 989.382690,290.295746 
	C990.127930,300.305450 992.854004,309.567474 998.999695,318.459625 
M1217.235107,133.241196 
	C1215.744141,132.833755 1214.259521,132.103333 1212.761230,132.074524 
	C1206.098145,131.946472 1199.431396,132.019348 1192.765869,132.019455 
	C1186.842896,132.019547 1180.920044,132.019470 1174.428467,132.019470 
	C1174.428467,147.423416 1174.428467,162.159790 1174.428467,177.451385 
	C1166.621460,177.451385 1159.383301,177.451385 1152.092529,177.451385 
	C1152.092529,187.991486 1152.092529,197.958328 1152.092529,208.662903 
	C1159.638550,208.662903 1167.025757,208.662903 1174.574829,208.662903 
	C1174.574829,211.728943 1174.569702,214.056534 1174.575439,216.384109 
	C1174.656006,248.541336 1174.548584,280.700714 1174.916626,312.854675 
	C1175.056885,325.106018 1181.493652,333.610321 1193.168091,337.632965 
	C1209.722656,343.337128 1226.628784,340.801636 1243.590698,339.989685 
	C1243.590698,328.913269 1243.590698,318.479584 1243.590698,308.168121 
	C1239.893677,308.168121 1236.438477,308.195953 1232.983887,308.163269 
	C1218.748901,308.028564 1217.564331,307.067139 1217.477539,292.865936 
	C1217.312866,265.871796 1217.416016,238.876053 1217.420654,211.880981 
	C1217.420776,210.925400 1217.556396,209.969849 1217.677368,208.372345 
	C1226.482666,208.372345 1235.034668,208.372345 1243.591797,208.372345 
	C1243.591797,197.763199 1243.591797,187.824753 1243.591797,177.232483 
	C1234.820923,177.232483 1226.270020,177.232483 1217.390503,177.232483 
	C1217.390503,162.429352 1217.390503,148.280884 1217.235107,133.241196 
M192.020477,362.500000 
	C192.020477,375.782532 192.020477,389.065063 192.020477,402.608093 
	C201.233627,402.608093 209.969482,402.608093 219.013855,402.608093 
	C219.013855,274.645325 219.013855,146.879913 219.013855,18.180742 
	C210.940811,22.933907 203.812820,27.435463 196.384125,31.369162 
	C192.939072,33.193413 191.924683,35.291893 191.928726,39.110455 
	C192.042862,146.573547 192.020477,254.036789 192.020477,362.500000 
M789.842957,147.500061 
	C789.842957,138.226410 789.842957,128.952744 789.842957,119.591171 
	C775.093201,119.591171 760.905579,119.591171 746.708435,119.591171 
	C746.708435,192.834946 746.708435,265.684021 746.708435,338.542908 
	C761.206848,338.542908 775.295776,338.542908 789.842957,338.542908 
	C789.842957,275.005585 789.842957,211.752838 789.842957,147.500061 
M109.988159,245.500000 
	C109.998802,275.145844 109.916336,304.792084 110.052292,334.437347 
	C110.145462,354.752411 110.547417,375.066010 110.798958,395.380432 
	C110.840172,398.708649 111.117424,402.182770 115.377205,402.329712 
	C123.125504,402.597015 130.889633,402.405609 138.265625,402.405609 
	C138.265625,291.186768 138.265625,180.169449 138.265625,67.625992 
	C129.393219,72.740578 121.772697,77.310089 113.971077,81.546051 
	C110.739105,83.300873 109.893906,85.529060 109.902405,89.096176 
	C110.025795,140.897232 109.987633,192.698654 109.988159,245.500000 
M1317.283936,192.792175 
	C1315.442871,195.445724 1313.601807,198.099289 1311.760742,200.752838 
	C1311.443481,200.679016 1311.126099,200.605194 1310.808838,200.531372 
	C1310.808838,192.363724 1310.808838,184.196091 1310.808838,176.011993 
	C1296.750000,176.011993 1283.321899,176.011993 1269.814087,176.011993 
	C1269.814087,230.357071 1269.814087,284.429840 1269.814087,338.588409 
	C1284.267944,338.588409 1298.370361,338.588409 1312.808472,338.588409 
	C1312.888916,336.761078 1313.019775,335.141785 1313.021973,333.522308 
	C1313.039307,321.189209 1312.921753,308.854889 1313.058594,296.523315 
	C1313.241577,280.036499 1313.168945,263.528473 1314.028809,247.072556 
	C1314.949097,229.463776 1324.652954,219.136139 1341.978271,216.522751 
	C1347.697632,215.660019 1353.593384,215.955383 1359.409668,215.754166 
	C1361.154663,215.693802 1362.903442,215.744812 1364.843506,215.744812 
	C1364.843506,201.861862 1364.741821,188.701645 1364.913696,175.544998 
	C1364.957520,172.184418 1363.375610,171.809570 1360.672974,171.698166 
	C1342.706177,170.957596 1328.014038,176.963104 1317.283936,192.792175 
M29.470158,392.429504 
	C29.470158,395.836884 29.470158,399.244293 29.470158,402.516388 
	C39.118370,402.516388 47.868279,402.516388 56.982052,402.516388 
	C56.598621,307.873596 57.491131,213.578018 56.282856,117.791870 
	C47.293213,123.074890 39.893490,127.435020 32.481258,131.773788 
	C29.625910,133.445160 29.422501,136.050293 29.424517,139.037247 
	C29.481314,223.174820 29.470194,307.312408 29.470158,392.429504 
M1068.135254,389.082947 
	C1067.977173,392.414978 1069.690063,392.427368 1072.692383,391.387756 
	C1072.692383,383.979950 1072.692383,376.662415 1072.692383,369.344910 
	C1078.301758,375.754150 1082.605103,382.562164 1087.244019,389.133240 
	C1088.355103,390.707123 1090.582520,391.492859 1092.981445,393.099854 
	C1092.981445,381.106018 1092.981445,370.833191 1092.981445,360.560364 
	C1092.479614,360.297485 1091.977905,360.034637 1091.476074,359.771759 
	C1090.692749,361.097137 1089.279785,362.400421 1089.232422,363.751587 
	C1088.998535,370.427063 1089.125977,377.115173 1089.125977,383.798859 
	C1083.344360,376.809418 1078.673706,369.590240 1073.781372,362.524506 
	C1072.992920,361.385803 1071.216797,360.930969 1069.897339,360.160004 
	C1069.310181,361.507019 1068.242310,362.844330 1068.214966,364.202606 
	C1068.053955,372.186279 1068.135620,380.174805 1068.135254,389.082947 
M1113.291992,359.447968 
	C1104.265259,360.119568 1099.994995,363.440460 1098.212036,371.175537 
	C1095.690063,382.116943 1100.922363,391.938507 1110.222900,392.592072 
	C1114.114868,392.865570 1118.140625,391.237885 1122.297241,390.437622 
	C1122.897461,390.831299 1124.071655,391.601532 1125.845947,392.765381 
	C1125.845947,386.336517 1125.845947,380.921448 1125.845947,375.038147 
	C1121.819458,375.038147 1118.021606,374.932159 1114.239014,375.124573 
	C1113.450317,375.164734 1112.717773,376.308014 1111.959351,376.942871 
	C1112.767456,377.541992 1113.533813,378.575104 1114.391602,378.657776 
	C1116.832031,378.892822 1119.309692,378.740265 1121.777222,378.740265 
	C1121.662354,384.557007 1119.357300,387.828766 1114.984131,388.890686 
	C1110.203369,390.051605 1104.995361,388.418396 1103.755005,383.874573 
	C1102.514648,379.331390 1102.641724,374.155884 1103.329468,369.426331 
	C1103.890991,365.565582 1107.353394,363.460266 1111.395508,363.147736 
	C1115.510742,362.829590 1118.803589,364.120178 1121.099121,367.880676 
	C1121.875000,369.151672 1123.654785,369.809937 1124.975708,370.748230 
	C1124.561279,363.262390 1120.348999,360.254761 1113.291992,359.447968 
M950.362793,362.021790 
	C950.344299,370.823761 950.364807,379.626068 950.284790,388.427460 
	C950.259033,391.257874 950.773193,393.056427 954.339233,391.439636 
	C954.339233,389.250763 954.339294,387.099945 954.339294,384.949127 
	C954.339294,382.816010 954.339233,380.682892 954.339233,378.586975 
	C968.732056,377.292603 969.011902,377.456940 969.034546,388.990875 
	C969.041077,392.314209 971.147888,392.568573 973.839478,391.465759 
	C973.030762,386.316040 972.255005,381.376434 971.317566,375.407104 
	C975.215637,370.188751 975.292175,363.382172 969.800415,362.008118 
	C963.712769,360.484924 957.032104,361.331818 950.362793,362.021790 
M877.125610,384.387024 
	C878.026672,386.969055 874.819092,391.787262 881.429810,392.240265 
	C881.429810,387.107635 881.429810,382.715637 881.429810,378.367645 
	C895.856567,377.669006 895.171387,377.197144 895.899841,388.830078 
	C896.114746,392.262512 897.913574,392.433441 900.799011,391.578796 
	C899.926208,386.282715 899.091064,381.215149 898.139404,375.440796 
	C900.434814,373.132111 901.878845,369.666779 900.071838,365.386383 
	C898.176392,360.896515 894.121338,360.432861 890.120728,360.204010 
	C886.023254,359.969635 881.901917,360.152069 877.125916,360.152069 
	C877.125916,368.236542 877.125916,375.826782 877.125610,384.387024 
M1050.929810,373.513672 
	C1050.928955,370.020996 1051.153931,366.505280 1050.801147,363.048462 
	C1050.682739,361.888214 1049.093750,360.877991 1048.176880,359.799225 
	C1047.700562,360.125366 1047.224365,360.451508 1046.748047,360.777679 
	C1046.748047,368.617920 1046.748047,376.458191 1046.748047,385.679169 
	C1041.209229,377.313568 1036.564575,370.080383 1031.643188,363.040527 
	C1030.602905,361.552490 1028.550659,360.771942 1026.084961,359.051514 
	C1026.084961,370.997803 1026.084961,381.256897 1026.084961,391.506042 
	C1029.771606,391.674225 1029.871338,391.675201 1029.901123,388.612000 
	C1029.966919,381.878540 1029.921509,375.143951 1029.921509,368.409821 
	C1035.555298,375.264679 1040.149292,382.464081 1045.054688,389.444580 
	C1046.071899,390.892090 1048.244751,391.527374 1050.929810,393.180145 
	C1050.929810,385.773224 1050.929810,380.140167 1050.929810,373.513672 
M800.999756,375.638885 
	C800.999756,373.158447 800.999756,370.678009 800.999756,368.197540 
	C806.735168,375.193726 811.284607,382.332336 816.132324,389.262329 
	C817.182617,390.763702 819.304321,391.515625 821.998901,393.331268 
	C821.998901,381.943634 822.052612,372.322357 821.906006,362.704102 
	C821.893066,361.852478 820.574097,361.020752 819.861633,360.179779 
	C819.229492,360.963470 818.267944,361.664154 818.044556,362.550812 
	C817.729370,363.802002 817.958313,365.190735 817.958130,366.520691 
	C817.957336,372.337646 817.957764,378.154572 817.957764,383.971527 
	C812.210999,377.018036 807.645447,369.896118 802.793030,362.975433 
	C801.765076,361.509338 799.688477,360.778534 796.964600,358.950134 
	C796.964600,370.434082 796.885925,380.047302 797.087036,389.654663 
	C797.106995,390.609924 798.833008,391.529510 799.767212,392.465637 
	C800.178040,392.136780 800.588928,391.807922 800.999756,391.479065 
	C800.999756,386.519348 800.999756,381.559601 800.999756,375.638885 
M928.945801,392.747650 
	C938.928711,393.024963 944.658569,388.167389 945.826843,378.436432 
	C946.889038,369.589050 942.239807,361.687805 934.971313,359.987518 
	C926.318787,357.963531 919.066406,362.208771 916.918152,370.555267 
	C914.155579,381.288818 918.614014,390.031921 928.945801,392.747650 
M1149.056274,381.110077 
	C1150.849854,384.839264 1149.161499,387.310791 1145.865967,388.702972 
	C1141.693848,390.465424 1136.931152,388.599609 1134.993042,385.103882 
	C1134.216309,383.702972 1132.846924,382.630707 1131.747314,381.408813 
	C1131.002319,390.200928 1136.707153,394.194092 1145.242920,392.522491 
	C1150.726562,391.448639 1153.677734,388.477112 1153.938843,383.766296 
	C1154.186646,379.295868 1151.206055,375.776184 1145.892212,374.382080 
	C1143.489136,373.751617 1140.852905,373.653290 1138.692749,372.573120 
	C1137.160278,371.806854 1135.185059,369.688263 1135.323364,368.375183 
	C1135.503296,366.666260 1137.259155,364.503235 1138.906372,363.691284 
	C1142.999268,361.673706 1146.584961,363.549896 1148.935181,367.969086 
	C1149.390259,368.824585 1150.765503,369.190704 1151.716309,369.782562 
	C1152.083984,368.974457 1152.809570,368.143250 1152.759155,367.362030 
	C1152.487427,363.144958 1148.013184,359.719666 1142.648560,359.445343 
	C1136.769531,359.144714 1132.100220,362.187134 1131.150024,366.937500 
	C1130.282837,371.272858 1133.160645,375.121826 1138.360840,376.791138 
	C1141.804688,377.896667 1145.193237,379.174500 1149.056274,381.110077 
M870.839905,374.387177 
	C865.788086,374.106415 860.736267,373.825653 855.632202,373.541992 
	C855.632202,370.269379 855.632202,367.346100 855.632202,364.023529 
	C860.520996,364.023529 865.159302,364.151794 869.780457,363.927979 
	C870.856445,363.875854 871.874451,362.626160 872.919128,361.927460 
	C871.931213,361.327118 870.956726,360.234863 869.953125,360.207275 
	C863.992249,360.043610 858.024658,360.126465 851.675903,360.126465 
	C851.675903,370.842316 851.675903,381.219696 851.675903,391.789581 
	C858.888672,391.789581 865.930237,391.789581 873.188599,391.789581 
	C873.084961,390.683960 873.072266,389.198730 872.926270,389.185516 
	C867.139038,388.660980 861.339600,388.270081 855.755615,387.876892 
	C855.755615,384.214325 855.755615,380.964600 855.755615,377.333038 
	C859.933655,377.333038 863.741455,377.497589 867.520142,377.237915 
	C868.735352,377.154388 869.873779,375.952332 870.839905,374.387177 
M846.710388,363.991760 
	C849.250061,362.526917 849.302002,360.513763 846.428589,360.302063 
	C839.974487,359.826599 833.460144,360.079865 826.975342,360.241119 
	C826.283569,360.258331 825.625427,361.630432 824.951721,362.373993 
	C825.646973,362.918030 826.309204,363.872162 827.043457,363.931152 
	C829.500916,364.128571 831.984131,364.006042 834.825073,364.006042 
	C834.825073,373.510010 834.825073,382.597076 834.825073,391.584442 
	C838.276794,392.814636 838.916077,391.282043 838.887573,388.551392 
	C838.803162,380.456757 838.857422,372.360657 838.857422,364.007721 
	C841.586060,364.007721 843.723511,364.007721 846.710388,363.991760 
M994.645508,375.503052 
	C994.644409,371.355774 994.837280,367.193481 994.518616,363.070740 
	C994.428406,361.903778 992.844116,360.852295 991.945068,359.747833 
	C991.560242,360.044617 991.175354,360.341400 990.790466,360.638184 
	C990.790466,371.026611 990.790466,381.415009 990.790466,392.084534 
	C996.679321,392.084534 1002.309631,392.165405 1007.933411,392.010468 
	C1008.954590,391.982330 1009.949219,390.989288 1010.956116,390.441711 
	C1009.929199,389.734406 1008.932678,388.475464 1007.869934,388.416748 
	C1003.618164,388.181915 999.345764,388.319794 994.645508,388.319794 
	C994.645508,384.046753 994.645508,380.272583 994.645508,375.503052 
M906.692810,367.660706 
	C906.692810,375.651276 906.692810,383.641815 906.692810,391.632385 
	C907.104858,391.934937 907.516907,392.237488 907.928955,392.540039 
	C908.889343,391.464661 910.654602,390.409943 910.682861,389.310638 
	C910.909607,380.483551 910.908081,371.645477 910.675476,362.818665 
	C910.647949,361.772156 908.807922,360.773346 907.808044,359.752441 
	C907.436340,360.083588 907.064575,360.414703 906.692871,360.745850 
	C906.692871,362.736481 906.692871,364.727081 906.692810,367.660706 
M1061.742310,378.487671 
	C1061.742676,373.497437 1061.676392,368.506012 1061.768921,363.517487 
	C1061.822144,360.648102 1060.867432,359.434082 1057.913574,360.540955 
	C1057.913574,371.012848 1057.913574,381.406677 1057.913574,391.800537 
	C1058.372681,392.061920 1058.831787,392.323303 1059.290894,392.584686 
	C1060.108276,391.377228 1061.490112,390.231842 1061.631104,388.950012 
	C1061.974487,385.827301 1061.742554,382.641357 1061.742310,378.487671 
M1015.003357,368.588654 
	C1015.003357,375.398346 1015.064026,382.208771 1014.976807,389.017365 
	C1014.935486,392.244049 1016.320068,392.623535 1018.840332,391.538605 
	C1018.840332,381.075684 1018.840332,370.828888 1018.840332,360.582092 
	C1018.463562,360.288849 1018.086792,359.995575 1017.710022,359.702332 
	C1016.809204,360.681976 1015.456726,361.528320 1015.118591,362.674042 
	C1014.667480,364.202209 1015.004761,365.963043 1015.003357,368.588654 
M790.214600,363.692230 
	C789.318970,362.681671 788.423401,361.671112 787.527771,360.660553 
	C786.376282,370.765930 786.292297,379.897369 786.484009,389.023041 
	C786.507629,390.146027 788.003296,391.238068 788.816833,392.344482 
	C789.283386,392.055634 789.750000,391.766815 790.216553,391.477966 
	C790.216553,382.538177 790.216553,373.598419 790.214600,363.692230 
z"/>
<path fill="#030303" opacity="1.000000" stroke="none" 
	d="
M712.891479,285.892395 
	C709.115479,302.799652 701.838745,317.214355 688.850281,328.494446 
	C669.718689,345.109680 637.569275,348.748169 617.447449,335.756287 
	C611.582581,331.969543 606.847107,326.433624 601.505737,321.619995 
	C601.505737,348.304077 601.505737,375.333771 601.505737,402.673035 
	C586.992798,402.673035 572.925171,402.673035 558.601074,402.673035 
	C558.601074,327.246338 558.601074,251.862549 558.601074,176.114929 
	C572.305603,176.114929 585.837769,176.114929 599.951843,176.114929 
	C599.951843,183.066116 599.951843,189.930161 599.951843,197.967331 
	C602.629028,194.723709 604.462219,192.450851 606.349670,190.223862 
	C626.703186,166.208450 666.186218,167.894485 688.834534,186.662354 
	C704.520569,199.660858 712.033752,216.731934 714.694580,236.308884 
	C716.930481,252.759338 716.312378,269.185974 712.891479,285.892395 
M622.865112,304.894745 
	C641.741150,310.798126 657.456421,304.961029 664.994629,287.743408 
	C674.218201,266.676331 673.795288,245.379501 662.826965,224.788528 
	C659.669312,218.860489 654.774048,214.500763 648.310120,212.460297 
	C632.209290,207.377686 611.593811,210.008789 603.928833,232.931229 
	C598.690552,248.596634 598.253723,264.665833 602.182312,280.658875 
	C604.892212,291.690674 611.175781,300.230865 622.865112,304.894745 
z"/>
<path fill="#040404" opacity="1.000000" stroke="none" 
	d="
M865.876831,174.850861 
	C888.903748,169.660843 911.311279,170.228149 933.173401,178.268021 
	C954.167480,185.988708 962.703552,198.730789 962.748840,221.156189 
	C962.809753,251.307220 962.818970,281.458405 962.941895,311.609131 
	C962.956726,315.248077 963.062195,319.016235 964.014587,322.480072 
	C964.755127,325.173065 966.340088,328.245789 968.515137,329.790741 
	C971.878479,332.179657 972.438354,334.765991 971.402100,338.823608 
	C963.721375,338.823608 955.931885,338.823578 948.142395,338.823608 
	C941.978577,338.823608 935.788269,338.475677 929.659851,338.941437 
	C925.300903,339.272705 923.665588,337.392181 922.979004,333.616180 
	C922.274902,329.743561 921.439392,325.894867 920.600769,321.735291 
	C915.661621,325.641754 911.079529,329.665039 906.106445,333.126495 
	C889.225952,344.875885 870.605469,346.976593 851.253235,341.372498 
	C828.596497,334.811493 816.161743,313.139404 819.247498,288.055359 
	C821.948608,266.098114 833.724548,251.711288 854.763428,245.903320 
	C867.369141,242.423416 880.559143,241.071793 893.473633,238.693726 
	C898.861206,237.701675 904.352356,236.963608 909.550598,235.328659 
	C916.312866,233.201767 919.534546,228.497986 919.432556,222.505112 
	C919.305481,215.047150 916.247864,210.677094 909.097961,208.371063 
	C900.515076,205.602890 891.725891,205.471313 882.934570,207.191803 
	C873.788330,208.981750 868.885864,215.282318 867.132385,223.857086 
	C866.287598,227.988068 864.552979,228.779388 860.815796,228.706299 
	C849.991577,228.494659 839.158936,228.529419 828.333008,228.692276 
	C824.965210,228.742920 824.134888,227.810410 824.514221,224.367279 
	C827.427185,197.919876 840.091492,182.518570 865.876831,174.850861 
M918.473022,284.734375 
	C918.834961,276.871735 919.196899,269.009125 919.520508,261.979156 
	C907.748596,264.646332 896.627625,267.053894 885.571167,269.728699 
	C881.397095,270.738495 877.173950,271.951752 873.320374,273.797241 
	C864.959595,277.801300 861.744385,285.244995 862.881958,296.517578 
	C863.620789,303.838715 868.280151,309.286346 875.646606,311.441467 
	C893.762390,316.741364 914.640381,304.055267 918.473022,284.734375 
z"/>
<path fill="#030303" opacity="1.000000" stroke="none" 
	d="
M324.295898,47.719437 
	C368.732971,75.065475 412.835999,102.260468 457.039093,129.291870 
	C463.347046,133.149368 466.043182,137.905701 466.020782,145.571198 
	C465.776459,229.220245 465.867798,312.870270 465.867767,396.520020 
	C465.867767,398.346832 465.867798,400.173645 465.867798,402.421082 
	C402.003876,402.421082 338.321381,402.421082 274.359955,402.421082 
	C274.359955,394.489288 274.359955,386.576172 274.359955,378.090698 
	C328.418854,378.090698 382.451935,378.090698 436.888702,378.090698 
	C436.888702,375.904755 436.888733,374.281006 436.888733,372.657288 
	C436.888702,299.009827 436.860474,225.362305 436.973480,151.715012 
	C436.979034,148.103088 435.901337,146.001541 432.822113,144.158386 
	C401.196930,125.228180 369.604858,106.241798 338.090668,87.127396 
	C317.638214,74.722305 297.315674,62.102455 276.992371,49.486313 
	C275.764771,48.724255 274.247467,47.163387 274.216766,45.940269 
	C273.984283,36.681896 274.089691,27.415047 274.089691,16.500956 
	C291.425995,27.275362 307.709930,37.395710 324.295898,47.719437 
z"/>
<path fill="#040404" opacity="1.000000" stroke="none" 
	d="
M998.799194,318.162170 
	C992.854004,309.567474 990.127930,300.305450 989.382690,290.295746 
	C989.127502,286.867798 990.218933,285.988861 993.484192,286.030273 
	C1005.478271,286.182495 1017.475647,286.133270 1029.471191,286.056122 
	C1031.963867,286.040100 1033.578369,286.469849 1033.866699,289.408783 
	C1035.008545,301.051331 1041.979126,307.091003 1053.086792,309.074341 
	C1063.875610,311.000763 1074.614014,311.519897 1085.130981,307.719513 
	C1089.524414,306.131927 1093.132324,303.579346 1094.028564,298.507996 
	C1095.204468,291.854248 1092.639160,286.770752 1085.631592,284.614044 
	C1072.618408,280.608948 1059.365723,277.389252 1046.279297,273.611969 
	C1037.975952,271.215271 1029.660645,268.753479 1021.579163,265.713440 
	C990.568604,254.048157 990.209290,225.221710 998.572449,206.177185 
	C1006.275024,188.637054 1020.455688,178.312775 1038.890625,174.162476 
	C1058.803223,169.679489 1078.620972,170.686905 1098.022583,177.235596 
	C1118.746704,184.230682 1130.005493,198.996384 1132.997681,220.411331 
	C1133.248535,222.206818 1133.561401,223.993652 1133.917969,226.241913 
	C1119.456299,226.241913 1105.267700,226.241913 1090.943604,226.241913 
	C1090.844360,226.136322 1090.478882,225.930740 1090.420654,225.659195 
	C1087.445679,211.813080 1082.210815,206.667130 1067.885620,205.495621 
	C1061.370239,204.962830 1054.577271,205.652512 1048.139893,206.937744 
	C1041.470215,208.269363 1037.542480,213.657410 1037.580322,219.184845 
	C1037.620728,225.087601 1040.452393,228.765839 1047.939087,230.798752 
	C1061.080444,234.367142 1074.450195,237.109619 1087.541870,240.838852 
	C1096.304077,243.334824 1105.120483,246.183533 1113.273804,250.178391 
	C1146.705078,266.558502 1142.535156,306.273346 1124.701538,324.650055 
	C1112.839233,336.873474 1097.804932,341.571014 1081.617920,343.273651 
	C1065.659180,344.952301 1049.691284,344.713684 1033.937134,340.895905 
	C1019.678528,337.440613 1007.696472,330.531036 998.799194,318.162170 
z"/>
<path fill="#030303" opacity="1.000000" stroke="none" 
	d="
M1217.312744,133.686798 
	C1217.390503,148.280884 1217.390503,162.429352 1217.390503,177.232483 
	C1226.270020,177.232483 1234.820923,177.232483 1243.591797,177.232483 
	C1243.591797,187.824753 1243.591797,197.763199 1243.591797,208.372345 
	C1235.034668,208.372345 1226.482666,208.372345 1217.677368,208.372345 
	C1217.556396,209.969849 1217.420776,210.925400 1217.420654,211.880981 
	C1217.416016,238.876053 1217.312866,265.871796 1217.477539,292.865936 
	C1217.564331,307.067139 1218.748901,308.028564 1232.983887,308.163269 
	C1236.438477,308.195953 1239.893677,308.168121 1243.590698,308.168121 
	C1243.590698,318.479584 1243.590698,328.913269 1243.590698,339.989685 
	C1226.628784,340.801636 1209.722656,343.337128 1193.168091,337.632965 
	C1181.493652,333.610321 1175.056885,325.106018 1174.916626,312.854675 
	C1174.548584,280.700714 1174.656006,248.541336 1174.575439,216.384109 
	C1174.569702,214.056534 1174.574829,211.728943 1174.574829,208.662903 
	C1167.025757,208.662903 1159.638550,208.662903 1152.092529,208.662903 
	C1152.092529,197.958328 1152.092529,187.991486 1152.092529,177.451385 
	C1159.383301,177.451385 1166.621460,177.451385 1174.428467,177.451385 
	C1174.428467,162.159790 1174.428467,147.423416 1174.428467,132.019470 
	C1180.920044,132.019470 1186.842896,132.019547 1192.765869,132.019455 
	C1199.431396,132.019348 1206.098145,131.946472 1212.761230,132.074524 
	C1214.259521,132.103333 1215.744141,132.833755 1217.312744,133.686798 
z"/>
<path fill="#020202" opacity="1.000000" stroke="none" 
	d="
M192.020477,362.000000 
	C192.020477,254.036789 192.042862,146.573547 191.928726,39.110455 
	C191.924683,35.291893 192.939072,33.193413 196.384125,31.369162 
	C203.812820,27.435463 210.940811,22.933907 219.013855,18.180742 
	C219.013855,146.879913 219.013855,274.645325 219.013855,402.608093 
	C209.969482,402.608093 201.233627,402.608093 192.020477,402.608093 
	C192.020477,389.065063 192.020477,375.782532 192.020477,362.000000 
z"/>
<path fill="#050505" opacity="1.000000" stroke="none" 
	d="
M789.842957,148.000076 
	C789.842957,211.752838 789.842957,275.005585 789.842957,338.542908 
	C775.295776,338.542908 761.206848,338.542908 746.708435,338.542908 
	C746.708435,265.684021 746.708435,192.834946 746.708435,119.591171 
	C760.905579,119.591171 775.093201,119.591171 789.842957,119.591171 
	C789.842957,128.952744 789.842957,138.226410 789.842957,148.000076 
z"/>
<path fill="#010101" opacity="1.000000" stroke="none" 
	d="
M109.988129,245.000000 
	C109.987633,192.698654 110.025795,140.897232 109.902405,89.096176 
	C109.893906,85.529060 110.739105,83.300873 113.971077,81.546051 
	C121.772697,77.310089 129.393219,72.740578 138.265625,67.625992 
	C138.265625,180.169449 138.265625,291.186768 138.265625,402.405609 
	C130.889633,402.405609 123.125504,402.597015 115.377205,402.329712 
	C111.117424,402.182770 110.840172,398.708649 110.798958,395.380432 
	C110.547417,375.066010 110.145462,354.752411 110.052292,334.437347 
	C109.916336,304.792084 109.998802,275.145844 109.988129,245.000000 
z"/>
<path fill="#050505" opacity="1.000000" stroke="none" 
	d="
M1317.493896,192.500443 
	C1328.014038,176.963104 1342.706177,170.957596 1360.672974,171.698166 
	C1363.375610,171.809570 1364.957520,172.184418 1364.913696,175.544998 
	C1364.741821,188.701645 1364.843506,201.861862 1364.843506,215.744812 
	C1362.903442,215.744812 1361.154663,215.693802 1359.409668,215.754166 
	C1353.593384,215.955383 1347.697632,215.660019 1341.978271,216.522751 
	C1324.652954,219.136139 1314.949097,229.463776 1314.028809,247.072556 
	C1313.168945,263.528473 1313.241577,280.036499 1313.058594,296.523315 
	C1312.921753,308.854889 1313.039307,321.189209 1313.021973,333.522308 
	C1313.019775,335.141785 1312.888916,336.761078 1312.808472,338.588409 
	C1298.370361,338.588409 1284.267944,338.588409 1269.814087,338.588409 
	C1269.814087,284.429840 1269.814087,230.357071 1269.814087,176.011993 
	C1283.321899,176.011993 1296.750000,176.011993 1310.808838,176.011993 
	C1310.808838,184.196091 1310.808838,192.363724 1310.808838,200.531372 
	C1311.126099,200.605194 1311.443481,200.679016 1311.760742,200.752838 
	C1313.601807,198.099289 1315.442871,195.445724 1317.493896,192.500443 
z"/>
<path fill="#070707" opacity="1.000000" stroke="none" 
	d="
M29.470181,391.939758 
	C29.470194,307.312408 29.481314,223.174820 29.424517,139.037247 
	C29.422501,136.050293 29.625910,133.445160 32.481258,131.773788 
	C39.893490,127.435020 47.293213,123.074890 56.282856,117.791870 
	C57.491131,213.578018 56.598621,307.873596 56.982052,402.516388 
	C47.868279,402.516388 39.118370,402.516388 29.470158,402.516388 
	C29.470158,399.244293 29.470158,395.836884 29.470181,391.939758 
z"/>
<path fill="#1C1C1C" opacity="1.000000" stroke="none" 
	d="
M1068.135254,388.622314 
	C1068.135620,380.174805 1068.053955,372.186279 1068.214966,364.202606 
	C1068.242310,362.844330 1069.310181,361.507019 1069.897217,360.159973 
	C1071.216797,360.930969 1072.992920,361.385803 1073.781372,362.524506 
	C1078.673706,369.590240 1083.344360,376.809418 1089.125977,383.798859 
	C1089.125977,377.115173 1088.998535,370.427063 1089.232422,363.751587 
	C1089.279785,362.400421 1090.692749,361.097137 1091.476074,359.771759 
	C1091.977905,360.034637 1092.479614,360.297485 1092.981445,360.560364 
	C1092.981445,370.833191 1092.981445,381.106018 1092.981445,393.099854 
	C1090.582520,391.492859 1088.355103,390.707123 1087.244019,389.133240 
	C1082.605103,382.562164 1078.301758,375.754150 1072.692383,369.344910 
	C1072.692383,376.662415 1072.692383,383.979950 1072.692383,391.387756 
	C1069.690063,392.427368 1067.977173,392.414978 1068.135254,388.622314 
z"/>
<path fill="#191919" opacity="1.000000" stroke="none" 
	d="
M1113.690674,359.499329 
	C1120.348999,360.254761 1124.561279,363.262390 1124.975708,370.748230 
	C1123.654785,369.809937 1121.875000,369.151672 1121.099121,367.880676 
	C1118.803589,364.120178 1115.510742,362.829590 1111.395508,363.147736 
	C1107.353394,363.460266 1103.890991,365.565582 1103.329468,369.426331 
	C1102.641724,374.155884 1102.514648,379.331390 1103.755005,383.874573 
	C1104.995361,388.418396 1110.203369,390.051605 1114.984131,388.890686 
	C1119.357300,387.828766 1121.662354,384.557007 1121.777222,378.740265 
	C1119.309692,378.740265 1116.832031,378.892822 1114.391602,378.657776 
	C1113.533813,378.575104 1112.767456,377.541992 1111.959351,376.942902 
	C1112.717773,376.308014 1113.450317,375.164734 1114.239014,375.124573 
	C1118.021606,374.932159 1121.819458,375.038147 1125.845947,375.038147 
	C1125.845947,380.921448 1125.845947,386.336517 1125.845947,392.765381 
	C1124.071655,391.601532 1122.897461,390.831299 1122.297241,390.437622 
	C1118.140625,391.237885 1114.114868,392.865570 1110.222900,392.592072 
	C1100.922363,391.938507 1095.690063,382.116943 1098.212036,371.175537 
	C1099.994995,363.440460 1104.265259,360.119568 1113.690674,359.499329 
z"/>
<path fill="#1C1C1C" opacity="1.000000" stroke="none" 
	d="
M950.486206,361.584229 
	C957.032104,361.331818 963.712769,360.484924 969.800415,362.008118 
	C975.292175,363.382172 975.215637,370.188751 971.317566,375.407104 
	C972.255005,381.376434 973.030762,386.316040 973.839478,391.465759 
	C971.147888,392.568573 969.041077,392.314209 969.034546,388.990875 
	C969.011902,377.456940 968.732056,377.292603 954.339233,378.586975 
	C954.339233,380.682892 954.339294,382.816010 954.339294,384.949127 
	C954.339294,387.099945 954.339233,389.250763 954.339233,391.439636 
	C950.773193,393.056427 950.259033,391.257874 950.284790,388.427460 
	C950.364807,379.626068 950.344299,370.823761 950.486206,361.584229 
M954.421204,364.893616 
	C954.421204,367.984314 954.421204,371.075012 954.421204,374.302124 
	C958.052612,374.302124 961.178101,374.437836 964.286499,374.265656 
	C967.701721,374.076508 970.070984,372.432159 969.855713,368.668457 
	C969.650757,365.085114 967.106689,364.014954 963.961853,364.011200 
	C960.978027,364.007660 957.994019,364.135864 954.421204,364.893616 
z"/>
<path fill="#1C1C1C" opacity="1.000000" stroke="none" 
	d="
M877.125732,383.902039 
	C877.125916,375.826782 877.125916,368.236542 877.125916,360.152069 
	C881.901917,360.152069 886.023254,359.969635 890.120728,360.204010 
	C894.121338,360.432861 898.176392,360.896515 900.071838,365.386383 
	C901.878845,369.666779 900.434814,373.132111 898.139404,375.440796 
	C899.091064,381.215149 899.926208,386.282715 900.799011,391.578796 
	C897.913574,392.433441 896.114746,392.262512 895.899841,388.830078 
	C895.171387,377.197144 895.856567,377.669006 881.429810,378.367645 
	C881.429810,382.715637 881.429810,387.107635 881.429810,392.240265 
	C874.819092,391.787262 878.026672,386.969055 877.125732,383.902039 
M896.742310,367.828339 
	C894.079590,363.667053 889.215454,362.682251 881.350830,364.733002 
	C881.350830,367.806763 881.350830,370.890228 881.350830,374.277649 
	C884.808777,374.277649 888.062683,374.402954 891.302551,374.243561 
	C894.765686,374.073151 896.799011,372.251099 896.742310,367.828339 
z"/>
<path fill="#131313" opacity="1.000000" stroke="none" 
	d="
M1050.929810,374.010406 
	C1050.929810,380.140167 1050.929810,385.773224 1050.929810,393.180145 
	C1048.244751,391.527374 1046.071899,390.892090 1045.054688,389.444580 
	C1040.149292,382.464081 1035.555298,375.264679 1029.921509,368.409821 
	C1029.921509,375.143951 1029.966919,381.878540 1029.901123,388.612000 
	C1029.871338,391.675201 1029.771606,391.674225 1026.084961,391.506042 
	C1026.084961,381.256897 1026.084961,370.997803 1026.084961,359.051514 
	C1028.550659,360.771942 1030.602905,361.552490 1031.643188,363.040527 
	C1036.564575,370.080383 1041.209229,377.313568 1046.748047,385.679169 
	C1046.748047,376.458191 1046.748047,368.617920 1046.748047,360.777679 
	C1047.224365,360.451508 1047.700562,360.125366 1048.176880,359.799225 
	C1049.093750,360.877991 1050.682739,361.888214 1050.801147,363.048462 
	C1051.153931,366.505280 1050.928955,370.020996 1050.929810,374.010406 
z"/>
<path fill="#131313" opacity="1.000000" stroke="none" 
	d="
M800.999756,376.119385 
	C800.999756,381.559601 800.999756,386.519348 800.999756,391.479065 
	C800.588928,391.807922 800.178040,392.136780 799.767212,392.465637 
	C798.833008,391.529510 797.106995,390.609924 797.087036,389.654663 
	C796.885925,380.047302 796.964600,370.434082 796.964600,358.950134 
	C799.688477,360.778534 801.765076,361.509338 802.793030,362.975433 
	C807.645447,369.896118 812.210999,377.018036 817.957764,383.971527 
	C817.957764,378.154572 817.957336,372.337646 817.958130,366.520691 
	C817.958313,365.190735 817.729370,363.802002 818.044556,362.550812 
	C818.267944,361.664154 819.229492,360.963470 819.861633,360.179779 
	C820.574097,361.020752 821.893066,361.852478 821.906006,362.704102 
	C822.052612,372.322357 821.998901,381.943634 821.998901,393.331268 
	C819.304321,391.515625 817.182617,390.763702 816.132324,389.262329 
	C811.284607,382.332336 806.735168,375.193726 800.999756,368.197540 
	C800.999756,370.678009 800.999756,373.158447 800.999756,376.119385 
z"/>
<path fill="#191919" opacity="1.000000" stroke="none" 
	d="
M928.546265,392.661194 
	C918.614014,390.031921 914.155579,381.288818 916.918152,370.555267 
	C919.066406,362.208771 926.318787,357.963531 934.971313,359.987518 
	C942.239807,361.687805 946.889038,369.589050 945.826843,378.436432 
	C944.658569,388.167389 938.928711,393.024963 928.546265,392.661194 
M922.672180,367.364319 
	C921.906311,371.187531 920.164429,375.117371 920.568054,378.812897 
	C921.554932,387.848419 929.849670,392.077423 936.755920,387.698608 
	C940.731506,385.177948 942.768188,378.424164 941.455566,372.353516 
	C940.559998,368.211945 938.796997,364.823883 934.348083,363.603394 
	C929.985413,362.406494 926.123169,363.058136 922.672180,367.364319 
z"/>
<path fill="#1C1C1C" opacity="1.000000" stroke="none" 
	d="
M1148.831421,380.742615 
	C1145.193237,379.174500 1141.804688,377.896667 1138.360840,376.791138 
	C1133.160645,375.121826 1130.282837,371.272858 1131.150024,366.937500 
	C1132.100220,362.187134 1136.769531,359.144714 1142.648560,359.445343 
	C1148.013184,359.719666 1152.487427,363.144958 1152.759155,367.362030 
	C1152.809570,368.143250 1152.083984,368.974457 1151.716309,369.782562 
	C1150.765503,369.190704 1149.390259,368.824585 1148.935181,367.969086 
	C1146.584961,363.549896 1142.999268,361.673706 1138.906372,363.691284 
	C1137.259155,364.503235 1135.503296,366.666260 1135.323364,368.375183 
	C1135.185059,369.688263 1137.160278,371.806854 1138.692749,372.573120 
	C1140.852905,373.653290 1143.489136,373.751617 1145.892212,374.382080 
	C1151.206055,375.776184 1154.186646,379.295868 1153.938843,383.766296 
	C1153.677734,388.477112 1150.726562,391.448639 1145.242920,392.522491 
	C1136.707153,394.194092 1131.002319,390.200928 1131.747314,381.408813 
	C1132.846924,382.630707 1134.216309,383.702972 1134.993042,385.103882 
	C1136.931152,388.599609 1141.693848,390.465424 1145.865967,388.702972 
	C1149.161499,387.310791 1150.849854,384.839264 1148.831421,380.742615 
z"/>
<path fill="#222222" opacity="1.000000" stroke="none" 
	d="
M870.943604,374.824585 
	C869.873779,375.952332 868.735352,377.154388 867.520142,377.237915 
	C863.741455,377.497589 859.933655,377.333038 855.755615,377.333038 
	C855.755615,380.964600 855.755615,384.214325 855.755615,387.876892 
	C861.339600,388.270081 867.139038,388.660980 872.926270,389.185516 
	C873.072266,389.198730 873.084961,390.683960 873.188599,391.789581 
	C865.930237,391.789581 858.888672,391.789581 851.675903,391.789581 
	C851.675903,381.219696 851.675903,370.842316 851.675903,360.126465 
	C858.024658,360.126465 863.992249,360.043610 869.953125,360.207275 
	C870.956726,360.234863 871.931213,361.327118 872.919128,361.927460 
	C871.874451,362.626160 870.856445,363.875854 869.780457,363.927979 
	C865.159302,364.151794 860.520996,364.023529 855.632202,364.023529 
	C855.632202,367.346100 855.632202,370.269379 855.632202,373.541992 
	C860.736267,373.825653 865.788086,374.106415 870.943604,374.824585 
z"/>
<path fill="#1C1C1C" opacity="1.000000" stroke="none" 
	d="
M846.285645,363.999756 
	C843.723511,364.007721 841.586060,364.007721 838.857422,364.007721 
	C838.857422,372.360657 838.803162,380.456757 838.887573,388.551392 
	C838.916077,391.282043 838.276794,392.814636 834.825073,391.584442 
	C834.825073,382.597076 834.825073,373.510010 834.825073,364.006042 
	C831.984131,364.006042 829.500916,364.128571 827.043457,363.931152 
	C826.309204,363.872162 825.646973,362.918030 824.951721,362.373993 
	C825.625427,361.630432 826.283569,360.258331 826.975342,360.241119 
	C833.460144,360.079865 839.974487,359.826599 846.428589,360.302063 
	C849.302002,360.513763 849.250061,362.526917 846.285645,363.999756 
z"/>
<path fill="#262626" opacity="1.000000" stroke="none" 
	d="
M994.645508,376.000732 
	C994.645508,380.272583 994.645508,384.046753 994.645508,388.319794 
	C999.345764,388.319794 1003.618164,388.181915 1007.869934,388.416748 
	C1008.932678,388.475464 1009.929199,389.734406 1010.956116,390.441711 
	C1009.949219,390.989288 1008.954590,391.982330 1007.933411,392.010468 
	C1002.309631,392.165405 996.679321,392.084534 990.790466,392.084534 
	C990.790466,381.415009 990.790466,371.026611 990.790466,360.638184 
	C991.175354,360.341400 991.560242,360.044617 991.945068,359.747833 
	C992.844116,360.852295 994.428406,361.903778 994.518616,363.070740 
	C994.837280,367.193481 994.644409,371.355774 994.645508,376.000732 
z"/>
<path fill="#222222" opacity="1.000000" stroke="none" 
	d="
M906.692871,367.189209 
	C906.692871,364.727081 906.692871,362.736481 906.692871,360.745850 
	C907.064575,360.414703 907.436340,360.083588 907.808044,359.752441 
	C908.807922,360.773346 910.647949,361.772156 910.675476,362.818665 
	C910.908081,371.645477 910.909607,380.483551 910.682861,389.310638 
	C910.654602,390.409943 908.889343,391.464661 907.928955,392.540039 
	C907.516907,392.237488 907.104858,391.934937 906.692810,391.632385 
	C906.692810,383.641815 906.692810,375.651276 906.692871,367.189209 
z"/>
<path fill="#222222" opacity="1.000000" stroke="none" 
	d="
M1061.742310,378.984253 
	C1061.742554,382.641357 1061.974487,385.827301 1061.631104,388.950012 
	C1061.490112,390.231842 1060.108276,391.377228 1059.290894,392.584686 
	C1058.831787,392.323303 1058.372681,392.061920 1057.913574,391.800537 
	C1057.913574,381.406677 1057.913574,371.012848 1057.913574,360.540955 
	C1060.867432,359.434082 1061.822144,360.648102 1061.768921,363.517487 
	C1061.676392,368.506012 1061.742676,373.497437 1061.742310,378.984253 
z"/>
<path fill="#191919" opacity="1.000000" stroke="none" 
	d="
M1015.003357,368.106293 
	C1015.004761,365.963043 1014.667480,364.202209 1015.118591,362.674042 
	C1015.456726,361.528320 1016.809204,360.681976 1017.710022,359.702332 
	C1018.086792,359.995575 1018.463562,360.288849 1018.840332,360.582092 
	C1018.840332,370.828888 1018.840332,381.075684 1018.840332,391.538605 
	C1016.320068,392.623535 1014.935486,392.244049 1014.976807,389.017365 
	C1015.064026,382.208771 1015.003357,375.398346 1015.003357,368.106293 
z"/>
<path fill="#070707" opacity="1.000000" stroke="none" 
	d="
M790.215576,364.175415 
	C790.216553,373.598419 790.216553,382.538177 790.216553,391.477966 
	C789.750000,391.766815 789.283386,392.055634 788.816833,392.344482 
	C788.003296,391.238068 786.507629,390.146027 786.484009,389.023041 
	C786.292297,379.897369 786.376282,370.765930 787.527771,360.660553 
	C788.423401,361.671112 789.318970,362.681671 790.215576,364.175415 
z"/>
<path fill="#FDFDFD" opacity="1.000000" stroke="none" 
	d="
M622.492554,304.776367 
	C611.175781,300.230865 604.892212,291.690674 602.182312,280.658875 
	C598.253723,264.665833 598.690552,248.596634 603.928833,232.931229 
	C611.593811,210.008789 632.209290,207.377686 648.310120,212.460297 
	C654.774048,214.500763 659.669312,218.860489 662.826965,224.788528 
	C673.795288,245.379501 674.218201,266.676331 664.994629,287.743408 
	C657.456421,304.961029 641.741150,310.798126 622.492554,304.776367 
z"/>
<path fill="#FBFBFB" opacity="1.000000" stroke="none" 
	d="
M918.350708,285.150879 
	C914.640381,304.055267 893.762390,316.741364 875.646606,311.441467 
	C868.280151,309.286346 863.620789,303.838715 862.881958,296.517578 
	C861.744385,285.244995 864.959595,277.801300 873.320374,273.797241 
	C877.173950,271.951752 881.397095,270.738495 885.571167,269.728699 
	C896.627625,267.053894 907.748596,264.646332 919.520508,261.979156 
	C919.196899,269.009125 918.834961,276.871735 918.350708,285.150879 
z"/>
<path fill="#EEEEEE" opacity="1.000000" stroke="none" 
	d="
M954.715698,364.549866 
	C957.994019,364.135864 960.978027,364.007660 963.961853,364.011200 
	C967.106689,364.014954 969.650757,365.085114 969.855713,368.668457 
	C970.070984,372.432159 967.701721,374.076508 964.286499,374.265656 
	C961.178101,374.437836 958.052612,374.302124 954.421204,374.302124 
	C954.421204,371.075012 954.421204,367.984314 954.715698,364.549866 
z"/>
<path fill="#EEEEEE" opacity="1.000000" stroke="none" 
	d="
M896.794250,368.214905 
	C896.799011,372.251099 894.765686,374.073151 891.302551,374.243561 
	C888.062683,374.402954 884.808777,374.277649 881.350830,374.277649 
	C881.350830,370.890228 881.350830,367.806763 881.350830,364.733002 
	C889.215454,362.682251 894.079590,363.667053 896.794250,368.214905 
z"/>
<path fill="#F9F9F9" opacity="1.000000" stroke="none" 
	d="
M922.885742,367.040894 
	C926.123169,363.058136 929.985413,362.406494 934.348083,363.603394 
	C938.796997,364.823883 940.559998,368.211945 941.455566,372.353516 
	C942.768188,378.424164 940.731506,385.177948 936.755920,387.698608 
	C929.849670,392.077423 921.554932,387.848419 920.568054,378.812897 
	C920.164429,375.117371 921.906311,371.187531 922.885742,367.040894 
z"/>
</svg>