<svg version="1.1" id="Layer_1" xmlns="http://www.w3.org/2000/svg" xmlns:xlink="http://www.w3.org/1999/xlink" x="0px" y="0px"
	 width="100%" viewBox="0 0 744 686" enable-background="new 0 0 744 686" xml:space="preserve">
<path fill="#FEFEFE" opacity="1.000000" stroke="none" 
	d="
M463.000000,687.000000 
	C308.666656,687.000000 154.833328,687.000000 1.000000,687.000000 
	C1.000000,458.333344 1.000000,229.666672 1.000000,1.000000 
	C249.000000,1.000000 497.000000,1.000000 745.000000,1.000000 
	C745.000000,229.666672 745.000000,458.333344 745.000000,687.000000 
	C651.166687,687.000000 557.333313,687.000000 463.000000,687.000000 
M480.029205,428.481842 
	C480.390442,433.850006 480.751678,439.218201 481.110138,444.545471 
	C492.176239,445.308319 492.961029,445.197052 495.549377,441.841614 
	C491.520935,441.581451 488.035919,441.356415 484.368958,441.119598 
	C484.368958,439.653473 484.368958,438.255859 484.368958,436.875397 
	C492.309082,436.428528 492.309082,436.428528 494.688141,434.019745 
	C492.590607,433.744232 491.115967,433.461243 489.630157,433.378540 
	C487.871796,433.280640 486.103760,433.355530 484.339935,433.355530 
	C484.074219,432.814667 483.808502,432.273834 483.542755,431.732971 
	C484.674591,430.870667 485.692383,429.651093 486.969360,429.243530 
	C488.327820,428.809937 489.979980,429.374847 491.413422,429.073425 
	C492.578705,428.828400 493.610321,427.947418 494.701233,427.348480 
	C493.650787,426.874207 492.608154,426.014099 491.548492,425.992615 
	C487.033752,425.900909 482.513947,426.057312 477.074493,425.982300 
	C474.262512,425.978302 471.438690,425.818604 468.643188,426.031128 
	C467.072418,426.150543 465.548370,426.884979 464.003296,427.342346 
	C465.601288,427.934998 467.201599,428.521515 468.795105,429.126007 
	C469.077576,429.233185 469.331604,429.415222 469.941742,429.752014 
	C469.941742,433.664795 469.837189,437.777557 470.018921,441.877655 
	C470.061707,442.842590 471.070160,443.764709 471.634399,444.706543 
	C472.178894,443.720245 473.149109,442.752625 473.193298,441.744446 
	C473.372742,437.650543 473.267914,433.544159 473.267914,429.483246 
	C475.474274,429.120331 477.217468,428.833618 480.029205,428.481842 
M697.894165,499.500031 
	C697.894470,411.176392 697.849976,322.852722 697.977844,234.529282 
	C697.988342,227.252670 695.208923,222.108521 689.231445,218.372269 
	C663.171387,202.083267 637.186707,185.672272 611.043457,169.517990 
	C552.943604,133.617325 494.779663,97.820297 436.598450,62.051544 
	C430.017151,58.005463 423.158081,54.411133 415.716217,50.205147 
	C415.716217,65.109009 415.646179,79.050247 415.836182,92.987953 
	C415.853180,94.235596 417.294189,95.886162 418.513000,96.634048 
	C462.003113,123.320862 505.498535,149.999771 549.096069,176.510605 
	C583.017639,197.137695 617.055237,217.574326 651.104553,237.990143 
	C654.454224,239.998611 655.719299,242.278809 655.714722,246.301254 
	C655.589294,356.455444 655.614624,466.609833 655.614685,576.764160 
	C655.614685,578.542358 655.614685,580.320557 655.614685,582.685547 
	C575.349182,582.685547 495.665649,582.685547 415.738312,582.685547 
	C415.738312,594.696411 415.738312,606.111267 415.738312,617.705017 
	C509.903931,617.705017 603.779480,617.705017 697.894165,617.705017 
	C697.894165,578.439819 697.894165,539.469910 697.894165,499.500031 
M334.122528,497.499390 
	C334.122528,349.330536 334.122528,201.161652 334.122528,51.885090 
	C330.578094,53.698856 327.901794,54.903908 325.387878,56.384613 
	C316.661133,61.524715 308.118561,66.994247 299.237762,71.847839 
	C295.552521,73.861916 294.240601,76.001671 294.243683,80.271164 
	C294.370941,257.574615 294.352692,434.878113 294.352692,612.181641 
	C294.352692,613.975647 294.352692,615.769592 294.352692,617.708313 
	C307.833862,617.708313 320.887512,617.708313 334.122528,617.708313 
	C334.122528,577.774719 334.122528,538.137146 334.122528,497.499390 
M173.125610,372.499969 
	C173.335541,440.464203 173.500732,508.428650 173.798874,576.392517 
	C173.849274,587.878296 174.503677,599.360657 174.813034,610.846436 
	C174.915009,614.632568 176.289047,617.746338 180.326035,617.835632 
	C191.943329,618.092590 203.569977,617.926392 215.444641,617.926392 
	C215.444641,615.887878 215.445236,614.244995 215.444565,612.602112 
	C215.389206,477.854431 215.356735,343.106689 215.255722,208.359055 
	C215.238861,185.883560 214.972717,163.407730 214.707214,140.933411 
	C214.651367,136.204727 214.092056,131.482010 213.716385,126.058815 
	C210.934906,127.278503 208.903870,127.959389 207.080795,129.003418 
	C197.003860,134.774139 187.038010,140.741623 176.897430,146.396637 
	C173.833267,148.105392 173.051331,150.231827 173.055573,153.578064 
	C173.147446,226.218597 173.125580,298.859283 173.125610,372.499969 
M54.481358,543.499634 
	C54.481358,568.264160 54.481358,593.028687 54.481358,617.750977 
	C68.033730,617.750977 80.970619,617.750977 94.180817,617.750977 
	C94.180817,616.029724 94.180878,614.561035 94.180817,613.092346 
	C94.176697,510.483246 94.210175,407.874115 94.145050,305.265045 
	C94.126022,275.281555 93.864075,245.297928 93.616081,215.315170 
	C93.576889,210.576950 93.019508,205.843002 92.685333,200.862946 
	C91.329033,201.077560 90.598793,201.006546 90.077797,201.303116 
	C79.574600,207.281982 69.070992,213.261063 58.625164,219.339233 
	C55.114231,221.382172 54.383160,224.576950 54.387730,228.617981 
	C54.506126,333.245087 54.481384,437.872345 54.481358,543.499634 
M382.767517,364.613098 
	C382.767517,385.561432 382.767517,406.509796 382.767517,427.507019 
	C387.273041,427.507019 391.454315,427.507019 395.924744,427.507019 
	C395.924744,420.156616 395.924744,413.231720 395.924744,406.117035 
	C408.569672,414.260406 421.459564,410.929688 426.373901,398.309448 
	C429.494629,390.295380 429.614380,381.959015 426.839386,373.869232 
	C422.411377,360.960449 407.195801,356.986847 396.903229,365.779907 
	C396.570404,366.064270 396.086548,366.171875 395.484894,366.448364 
	C395.278259,364.883270 395.097534,363.514435 394.895416,361.983429 
	C392.488159,361.983429 390.302460,361.770355 388.180939,362.047943 
	C386.342133,362.288513 384.576141,363.085266 382.767517,364.613098 
M461.639343,368.309814 
	C460.614441,371.272552 459.589539,374.235291 458.495453,377.398041 
	C467.717621,378.491150 467.382751,378.032440 473.959259,373.231659 
	C476.356171,371.481964 480.779297,372.257996 484.248413,372.441345 
	C484.929260,372.477295 486.170807,376.219177 485.975311,376.339661 
	C483.636597,377.780853 481.172791,379.200592 478.548798,379.954376 
	C474.740692,381.048309 470.635406,381.184998 466.905914,382.458893 
	C459.610870,384.950653 456.460480,391.350983 457.842346,399.734283 
	C458.942383,406.407959 464.272766,411.331421 471.598053,410.806274 
	C476.791748,410.433929 481.850861,408.183441 487.082977,406.740143 
	C488.210266,409.816406 494.068542,410.947845 500.898895,408.958374 
	C500.393616,403.979645 499.667999,399.229309 499.488861,394.458527 
	C499.264343,388.478943 499.987091,382.428070 499.341248,376.512756 
	C498.918518,372.641052 497.771851,368.016602 495.235596,365.374451 
	C489.306183,359.197449 467.841339,358.204926 461.639343,368.309814 
M523.878845,399.926941 
	C522.200256,398.121338 520.521667,396.315735 518.393921,394.026978 
	C515.007568,394.026978 510.741241,394.026978 506.453735,394.026978 
	C507.197052,402.590576 510.894501,408.191010 518.200378,409.632599 
	C523.787354,410.734985 529.807922,411.006531 535.436707,410.221558 
	C544.727417,408.925873 549.829346,403.015869 549.927612,395.222260 
	C550.017700,388.083405 545.212158,383.168488 535.862000,380.863586 
	C531.884277,379.882996 527.850830,379.088959 523.945129,377.879517 
	C522.788940,377.521454 521.078430,375.873566 521.216614,375.102600 
	C521.452332,373.787720 522.710876,372.176605 523.958374,371.607086 
	C528.909058,369.347076 533.542786,371.541779 535.841919,376.963440 
	C539.921326,376.963440 544.035095,376.963440 549.625610,376.963440 
	C547.538696,372.817627 546.468689,368.828583 543.992004,366.131317 
	C537.330139,358.876129 519.973511,359.045868 512.666016,365.739349 
	C506.347504,371.526886 504.431641,385.339569 517.445312,389.090912 
	C519.669373,389.732025 521.929138,390.264252 524.120361,391.001312 
	C527.586731,392.167206 531.106812,393.249237 534.425110,394.760010 
	C538.433044,396.584747 536.534607,398.994263 533.976990,399.707855 
	C531.070251,400.518799 527.791504,399.996063 523.878845,399.926941 
M559.517639,355.747925 
	C559.517639,357.835541 559.517639,359.923157 559.517639,361.955597 
	C556.956238,362.259430 555.060974,362.484253 553.366943,362.685211 
	C553.366943,366.031189 553.366943,368.935516 553.366943,371.793976 
	C555.631165,372.011139 557.527283,372.192963 559.496399,372.381805 
	C559.496399,381.612946 559.473206,390.428650 559.504028,399.244141 
	C559.526978,405.817657 561.793030,409.068604 567.623230,409.787445 
	C571.645813,410.283356 575.778809,409.882629 579.726685,409.882629 
	C579.726685,406.182220 579.726685,403.106323 579.726685,400.108002 
	C577.434326,400.007141 575.479858,399.921143 573.102295,399.816528 
	C573.102295,390.540344 573.102295,381.506195 573.102295,372.220154 
	C575.281799,372.080963 577.528442,371.937439 579.832642,371.790283 
	C579.832642,368.550201 579.832642,365.634216 579.832642,362.549652 
	C577.394592,362.363770 575.155945,362.193085 572.354492,361.979492 
	C572.354492,357.633850 572.354492,353.592621 572.354492,349.629883 
	C567.829773,349.629883 563.913513,349.629883 559.517822,349.629883 
	C559.517822,351.548157 559.517822,353.180359 559.517639,355.747925 
M436.716156,357.506714 
	C436.716156,374.720978 436.716156,391.935272 436.716156,409.164551 
	C441.528595,409.164551 445.610962,409.164551 449.684082,409.164551 
	C449.684082,387.939819 449.684082,367.041748 449.684082,346.171204 
	C445.233795,346.171204 441.029144,346.171204 436.716125,346.171204 
	C436.716125,349.861816 436.716125,353.184784 436.716156,357.506714 
M600.021118,395.501068 
	C600.021484,391.845581 599.900574,388.185242 600.048096,384.535675 
	C600.331482,377.522980 603.691284,374.259033 610.616455,374.062347 
	C611.906738,374.025696 613.199036,374.057129 614.601196,374.057129 
	C614.601196,369.559418 614.601196,365.339264 614.601196,361.191559 
	C608.067078,359.755219 603.669312,362.996979 599.549988,367.650574 
	C599.341125,365.376953 599.195862,363.795624 599.058289,362.298004 
	C594.928345,362.298004 591.018250,362.298004 587.217896,362.298004 
	C587.217896,378.128052 587.217896,393.646423 587.217896,409.206726 
	C591.630127,409.206726 595.710938,409.206726 600.021118,409.206726 
	C600.021118,404.784943 600.021118,400.638885 600.021118,395.501068 
M495.462219,470.437866 
	C497.800720,472.302673 499.027405,471.881866 498.997833,468.748566 
	C498.971802,465.994965 498.992340,463.240936 498.992340,459.027405 
	C501.853851,463.501709 503.824860,466.859436 506.115509,469.982727 
	C506.733215,470.825012 508.298248,471.135345 509.479675,471.284576 
	C509.767883,471.320953 510.581940,469.765045 510.601868,468.928070 
	C510.712769,464.273529 510.789185,459.607483 510.534607,454.964203 
	C510.485565,454.069855 508.910706,453.259186 508.039764,452.409943 
	C507.636322,452.683533 507.232880,452.957123 506.829437,453.230713 
	C506.829437,456.722015 506.829437,460.213318 506.829437,463.742493 
	C502.192596,460.884705 502.852081,452.923309 495.381317,452.781036 
	C495.381317,458.971497 495.381317,464.286682 495.462219,470.437866 
M462.887512,442.762390 
	C462.892639,438.101532 463.026917,433.434570 462.807739,428.784271 
	C462.755981,427.686707 461.514465,426.645203 460.820251,425.577911 
	C460.245361,425.824554 459.670502,426.071228 459.095612,426.317871 
	C459.095612,429.818420 459.095612,433.318970 459.095612,438.226379 
	C456.881683,434.732086 455.591370,432.465820 454.072937,430.364349 
	C452.582855,428.302124 452.025787,424.612671 447.700714,426.452362 
	C447.700714,431.670227 447.627777,436.971100 447.775818,442.265778 
	C447.799255,443.103119 448.820160,443.912506 449.379944,444.734833 
	C449.932404,443.918335 450.905975,443.129303 450.961365,442.280396 
	C451.156708,439.285736 451.037323,436.270569 451.037323,431.864838 
	C453.881195,436.340851 455.839661,439.417786 457.792236,442.498505 
	C459.098724,444.559814 460.522705,446.051819 462.887512,442.762390 
M529.900391,468.880310 
	C529.900391,466.299896 529.900391,463.719482 529.900391,461.409058 
	C526.419006,461.409058 523.726929,461.409058 521.034790,461.409058 
	C520.921997,461.886597 520.809204,462.364136 520.696411,462.841675 
	C522.468079,463.464813 524.239746,464.087952 527.746521,465.321381 
	C524.747925,466.876343 522.697693,468.838776 520.990234,468.575806 
	C519.230530,468.304718 516.601196,465.940674 516.503540,464.359528 
	C516.340942,461.726868 517.388916,458.612946 518.973022,456.477539 
	C519.612976,455.614777 523.061340,456.577148 525.122375,457.122253 
	C526.387451,457.456818 527.445374,458.574585 528.596313,459.340668 
	C527.535034,453.166748 523.946655,451.157898 519.021118,452.626740 
	C515.011536,453.822449 513.082458,456.658417 512.738037,460.677124 
	C512.381592,464.835876 512.735474,468.902893 517.038208,470.951111 
	C521.443298,473.048096 525.760193,471.711670 529.900391,468.880310 
M522.833496,428.376007 
	C518.464539,435.981049 520.858765,444.082977 527.792847,445.020264 
	C532.130188,445.606567 535.681763,444.342896 537.729248,440.193115 
	C539.922546,435.747925 539.136475,429.951965 535.645996,427.437256 
	C531.591980,424.516418 527.345703,424.637054 522.833496,428.376007 
M497.011230,434.503113 
	C497.011047,436.992584 496.832794,439.501282 497.098572,441.962036 
	C497.204498,442.942749 498.292084,443.817383 498.932800,444.740326 
	C499.517853,443.896027 500.445526,443.113434 500.611176,442.193573 
	C500.890839,440.640503 500.687927,439.000580 500.687927,437.386536 
	C505.230347,436.676361 508.935181,436.275574 508.618378,442.381409 
	C508.572662,443.262085 510.408142,444.240356 512.127686,445.903198 
	C512.127686,439.972015 512.083191,435.719940 512.142212,431.469299 
	C512.186829,428.255768 510.562073,426.336395 507.519287,426.079651 
	C504.131134,425.793823 500.700287,426.014160 497.011383,426.014160 
	C497.011383,428.936646 497.011383,431.237213 497.011230,434.503113 
M480.773773,468.778534 
	C482.200195,469.813965 483.626587,470.849396 485.813873,472.437134 
	C485.813873,464.987030 485.813873,459.058868 485.813873,453.130676 
	C485.295349,452.960114 484.776855,452.789551 484.258331,452.618988 
	C483.737549,454.065704 482.978943,455.476379 482.753021,456.967773 
	C482.432617,459.082184 482.504761,461.256073 482.397095,463.675873 
	C477.469604,460.768616 478.089539,453.095673 470.944855,452.794678 
	C470.944855,458.645447 470.875732,463.777802 471.013672,468.904602 
	C471.036346,469.747253 471.968842,470.565430 472.480804,471.394897 
	C473.027161,470.594208 473.991669,469.820129 474.044739,468.988007 
	C474.235870,465.988770 474.119873,462.970001 474.119873,459.958588 
	C474.426575,459.926239 474.733307,459.893921 475.040009,459.861572 
	C476.802521,462.639252 478.565002,465.416931 480.773773,468.778534 
M536.239502,471.640472 
	C538.050415,471.709625 540.312195,472.488647 541.571167,471.688904 
	C543.693665,470.340576 546.214844,468.162262 546.572021,466.002808 
	C546.811707,464.553955 543.671631,462.463745 541.900696,460.814056 
	C541.359741,460.310059 540.298462,460.413025 539.555664,460.066284 
	C538.307861,459.483765 537.090698,458.811188 535.971619,458.019531 
	C535.872192,457.949158 536.567871,456.150757 536.927246,456.138733 
	C538.633057,456.081757 540.470032,456.048645 542.023010,456.635315 
	C543.141235,457.057678 543.886169,458.468109 544.797668,459.437805 
	C545.271118,459.172699 545.744629,458.907593 546.218140,458.642487 
	C545.699219,457.150146 545.570251,454.776703 544.584045,454.340271 
	C542.179993,453.276306 539.111633,452.194702 536.819397,452.863525 
	C534.886597,453.427429 532.859985,456.288239 532.448059,458.434357 
	C532.212158,459.663177 534.940247,461.742950 536.668884,462.966431 
	C537.793335,463.762299 539.606873,463.510590 540.947571,464.100861 
	C541.847595,464.497162 543.047791,465.549652 543.042786,466.301514 
	C543.037476,467.113129 541.681030,468.667206 541.095337,468.586182 
	C539.150696,468.317108 537.258179,467.532623 535.404236,466.798065 
	C534.306580,466.363190 533.319214,465.650055 532.282227,465.062042 
	C532.368652,466.290070 532.104736,467.706451 532.636292,468.695190 
	C533.210449,469.763123 534.528076,470.431335 536.239502,471.640472 
M543.604370,425.959198 
	C542.713257,426.599854 541.074097,427.212555 541.048950,427.885498 
	C540.840759,433.461182 540.931091,439.048004 540.931091,445.233612 
	C546.307617,443.786591 543.004761,439.561707 544.826904,437.242462 
	C548.533020,436.916412 552.886963,435.663971 552.297607,442.433350 
	C552.227051,443.243073 554.126709,444.224396 555.968872,445.908447 
	C555.968872,440.039185 556.470703,435.554688 555.745178,431.278442 
	C555.410828,429.307709 552.959839,427.165833 550.941528,426.171936 
	C549.198730,425.313690 546.709534,425.971039 543.604370,425.959198 
M450.187012,468.986176 
	C450.462524,469.703949 450.716492,471.036163 451.016785,471.046692 
	C454.994354,471.185974 458.978424,471.139526 462.960876,471.139526 
	C463.030884,470.396332 463.100861,469.653107 463.170868,468.909912 
	C460.271881,468.501312 457.372894,468.092743 453.987854,467.615631 
	C453.987854,462.882202 453.987854,457.961334 453.987854,453.040466 
	C453.472595,452.796326 452.957336,452.552216 452.442078,452.308075 
	C451.690399,453.403412 450.362305,454.462280 450.290314,455.600647 
	C450.028229,459.744232 450.186218,463.914398 450.187012,468.986176 
M518.805054,440.120422 
	C518.804260,436.330627 518.977600,432.527618 518.690857,428.759583 
	C518.610474,427.704041 517.175415,426.751617 516.361755,425.751923 
	C515.906555,426.038818 515.451355,426.325745 514.996155,426.612671 
	C514.996155,431.536865 514.885742,436.465393 515.078003,441.382050 
	C515.123047,442.533630 516.192932,443.645142 516.791382,444.775116 
	C517.462463,443.525024 518.133606,442.274933 518.805054,440.120422 
M489.027649,457.643433 
	C489.027649,462.089874 489.027649,466.536346 489.027649,470.982788 
	C489.512604,471.264435 489.997589,471.546082 490.482544,471.827728 
	C491.267059,470.812378 492.655975,469.838104 492.728241,468.774384 
	C492.998016,464.802582 493.016296,460.788849 492.737701,456.818298 
	C492.641602,455.448883 491.402985,454.159668 490.686279,452.833801 
	C490.133484,454.118805 489.580688,455.403809 489.027649,457.643433 
M441.156006,441.044006 
	C441.832031,442.287872 442.508087,443.531738 443.184113,444.775604 
	C443.786011,443.644226 444.864227,442.530731 444.907593,441.378357 
	C445.098206,436.313629 444.989777,431.237640 444.989777,426.165741 
	C444.426178,425.930664 443.862579,425.695587 443.299011,425.460510 
	C442.585236,426.558685 441.334991,427.619720 441.256012,428.761810 
	C440.994812,432.535950 441.156586,436.339325 441.156006,441.044006 
M465.440186,471.226562 
	C466.301331,470.466309 467.863617,469.744141 467.907318,468.939484 
	C468.150116,464.469543 468.099487,459.977203 467.959778,455.498444 
	C467.932465,454.622040 467.070862,453.771667 466.594025,452.909271 
	C465.957581,453.786560 464.798859,454.647827 464.771393,455.543793 
	C464.618866,460.518494 464.741150,465.501617 465.440186,471.226562 
z"/>
<path fill="#010101" opacity="1.000000" stroke="none" 
	d="
M697.894165,500.000061 
	C697.894165,539.469910 697.894165,578.439819 697.894165,617.705017 
	C603.779480,617.705017 509.903931,617.705017 415.738312,617.705017 
	C415.738312,606.111267 415.738312,594.696411 415.738312,582.685547 
	C495.665649,582.685547 575.349182,582.685547 655.614685,582.685547 
	C655.614685,580.320557 655.614685,578.542358 655.614685,576.764160 
	C655.614624,466.609833 655.589294,356.455444 655.714722,246.301254 
	C655.719299,242.278809 654.454224,239.998611 651.104553,237.990143 
	C617.055237,217.574326 583.017639,197.137695 549.096069,176.510605 
	C505.498535,149.999771 462.003113,123.320862 418.513000,96.634048 
	C417.294189,95.886162 415.853180,94.235596 415.836182,92.987953 
	C415.646179,79.050247 415.716217,65.109009 415.716217,50.205147 
	C423.158081,54.411133 430.017151,58.005463 436.598450,62.051544 
	C494.779663,97.820297 552.943604,133.617325 611.043457,169.517990 
	C637.186707,185.672272 663.171387,202.083267 689.231445,218.372269 
	C695.208923,222.108521 697.988342,227.252670 697.977844,234.529282 
	C697.849976,322.852722 697.894470,411.176392 697.894165,500.000061 
z"/>
<path fill="#030303" opacity="1.000000" stroke="none" 
	d="
M334.122528,497.999512 
	C334.122528,538.137146 334.122528,577.774719 334.122528,617.708313 
	C320.887512,617.708313 307.833862,617.708313 294.352692,617.708313 
	C294.352692,615.769592 294.352692,613.975647 294.352692,612.181641 
	C294.352692,434.878113 294.370941,257.574615 294.243683,80.271164 
	C294.240601,76.001671 295.552521,73.861916 299.237762,71.847839 
	C308.118561,66.994247 316.661133,61.524715 325.387878,56.384613 
	C327.901794,54.903908 330.578094,53.698856 334.122528,51.885090 
	C334.122528,201.161652 334.122528,349.330536 334.122528,497.999512 
z"/>
<path fill="#020202" opacity="1.000000" stroke="none" 
	d="
M173.125610,371.999939 
	C173.125580,298.859283 173.147446,226.218597 173.055573,153.578064 
	C173.051331,150.231827 173.833267,148.105392 176.897430,146.396637 
	C187.038010,140.741623 197.003860,134.774139 207.080795,129.003418 
	C208.903870,127.959389 210.934906,127.278503 213.716385,126.058815 
	C214.092056,131.482010 214.651367,136.204727 214.707214,140.933411 
	C214.972717,163.407730 215.238861,185.883560 215.255722,208.359055 
	C215.356735,343.106689 215.389206,477.854431 215.444565,612.602112 
	C215.445236,614.244995 215.444641,615.887878 215.444641,617.926392 
	C203.569977,617.926392 191.943329,618.092590 180.326035,617.835632 
	C176.289047,617.746338 174.915009,614.632568 174.813034,610.846436 
	C174.503677,599.360657 173.849274,587.878296 173.798874,576.392517 
	C173.500732,508.428650 173.335541,440.464203 173.125610,371.999939 
z"/>
<path fill="#040404" opacity="1.000000" stroke="none" 
	d="
M54.481377,542.999634 
	C54.481384,437.872345 54.506126,333.245087 54.387730,228.617981 
	C54.383160,224.576950 55.114231,221.382172 58.625164,219.339233 
	C69.070992,213.261063 79.574600,207.281982 90.077797,201.303116 
	C90.598793,201.006546 91.329033,201.077560 92.685333,200.862946 
	C93.019508,205.843002 93.576889,210.576950 93.616081,215.315170 
	C93.864075,245.297928 94.126022,275.281555 94.145050,305.265045 
	C94.210175,407.874115 94.176697,510.483246 94.180817,613.092346 
	C94.180878,614.561035 94.180817,616.029724 94.180817,617.750977 
	C80.970619,617.750977 68.033730,617.750977 54.481358,617.750977 
	C54.481358,593.028687 54.481358,568.264160 54.481377,542.999634 
z"/>
<path fill="#050505" opacity="1.000000" stroke="none" 
	d="
M382.772766,364.124634 
	C384.576141,363.085266 386.342133,362.288513 388.180939,362.047943 
	C390.302460,361.770355 392.488159,361.983429 394.895416,361.983429 
	C395.097534,363.514435 395.278259,364.883270 395.484894,366.448364 
	C396.086548,366.171875 396.570404,366.064270 396.903229,365.779907 
	C407.195801,356.986847 422.411377,360.960449 426.839386,373.869232 
	C429.614380,381.959015 429.494629,390.295380 426.373901,398.309448 
	C421.459564,410.929688 408.569672,414.260406 395.924744,406.117035 
	C395.924744,413.231720 395.924744,420.156616 395.924744,427.507019 
	C391.454315,427.507019 387.273041,427.507019 382.767517,427.507019 
	C382.767517,406.509796 382.767517,385.561432 382.772766,364.124634 
M398.731110,375.087646 
	C394.327545,380.938324 394.356049,387.380371 396.563232,393.917175 
	C397.865082,397.772736 401.123688,399.596375 405.048035,399.660370 
	C408.798279,399.721527 412.274933,398.107574 413.131866,394.334442 
	C414.124115,389.965637 414.999908,385.161224 414.183228,380.878296 
	C412.617737,372.668549 406.826324,370.554962 398.731110,375.087646 
z"/>
<path fill="#050505" opacity="1.000000" stroke="none" 
	d="
M461.837769,367.992462 
	C467.841339,358.204926 489.306183,359.197449 495.235596,365.374451 
	C497.771851,368.016602 498.918518,372.641052 499.341248,376.512756 
	C499.987091,382.428070 499.264343,388.478943 499.488861,394.458527 
	C499.667999,399.229309 500.393616,403.979645 500.898895,408.958374 
	C494.068542,410.947845 488.210266,409.816406 487.082977,406.740143 
	C481.850861,408.183441 476.791748,410.433929 471.598053,410.806274 
	C464.272766,411.331421 458.942383,406.407959 457.842346,399.734283 
	C456.460480,391.350983 459.610870,384.950653 466.905914,382.458893 
	C470.635406,381.184998 474.740692,381.048309 478.548798,379.954376 
	C481.172791,379.200592 483.636597,377.780853 485.975311,376.339661 
	C486.170807,376.219177 484.929260,372.477295 484.248413,372.441345 
	C480.779297,372.257996 476.356171,371.481964 473.959259,373.231659 
	C467.382751,378.032440 467.717621,378.491150 458.495453,377.398041 
	C459.589539,374.235291 460.614441,371.272552 461.837769,367.992462 
M471.197235,393.182098 
	C471.794830,395.560791 472.110168,399.833984 473.041443,399.972748 
	C476.184875,400.441071 479.989197,400.270081 482.722992,398.811096 
	C486.939911,396.560638 486.437744,392.081787 485.629669,387.053497 
	C480.675659,388.989655 476.169342,390.750824 471.197235,393.182098 
z"/>
<path fill="#060606" opacity="1.000000" stroke="none" 
	d="
M524.276611,399.990021 
	C527.791504,399.996063 531.070251,400.518799 533.976990,399.707855 
	C536.534607,398.994263 538.433044,396.584747 534.425110,394.760010 
	C531.106812,393.249237 527.586731,392.167206 524.120361,391.001312 
	C521.929138,390.264252 519.669373,389.732025 517.445312,389.090912 
	C504.431641,385.339569 506.347504,371.526886 512.666016,365.739349 
	C519.973511,359.045868 537.330139,358.876129 543.992004,366.131317 
	C546.468689,368.828583 547.538696,372.817627 549.625610,376.963440 
	C544.035095,376.963440 539.921326,376.963440 535.841919,376.963440 
	C533.542786,371.541779 528.909058,369.347076 523.958374,371.607086 
	C522.710876,372.176605 521.452332,373.787720 521.216614,375.102600 
	C521.078430,375.873566 522.788940,377.521454 523.945129,377.879517 
	C527.850830,379.088959 531.884277,379.882996 535.862000,380.863586 
	C545.212158,383.168488 550.017700,388.083405 549.927612,395.222260 
	C549.829346,403.015869 544.727417,408.925873 535.436707,410.221558 
	C529.807922,411.006531 523.787354,410.734985 518.200378,409.632599 
	C510.894501,408.191010 507.197052,402.590576 506.453735,394.026978 
	C510.741241,394.026978 515.007568,394.026978 518.393921,394.026978 
	C520.521667,396.315735 522.200256,398.121338 524.276611,399.990021 
z"/>
<path fill="#080808" opacity="1.000000" stroke="none" 
	d="
M559.517700,355.280243 
	C559.517822,353.180359 559.517822,351.548157 559.517822,349.629883 
	C563.913513,349.629883 567.829773,349.629883 572.354492,349.629883 
	C572.354492,353.592621 572.354492,357.633850 572.354492,361.979492 
	C575.155945,362.193085 577.394592,362.363770 579.832642,362.549652 
	C579.832642,365.634216 579.832642,368.550201 579.832642,371.790283 
	C577.528442,371.937439 575.281799,372.080963 573.102295,372.220154 
	C573.102295,381.506195 573.102295,390.540344 573.102295,399.816528 
	C575.479858,399.921143 577.434326,400.007141 579.726685,400.108002 
	C579.726685,403.106323 579.726685,406.182220 579.726685,409.882629 
	C575.778809,409.882629 571.645813,410.283356 567.623230,409.787445 
	C561.793030,409.068604 559.526978,405.817657 559.504028,399.244141 
	C559.473206,390.428650 559.496399,381.612946 559.496399,372.381805 
	C557.527283,372.192963 555.631165,372.011139 553.366943,371.793976 
	C553.366943,368.935516 553.366943,366.031189 553.366943,362.685211 
	C555.060974,362.484253 556.956238,362.259430 559.517639,361.955597 
	C559.517639,359.923157 559.517639,357.835541 559.517700,355.280243 
z"/>
<path fill="#040404" opacity="1.000000" stroke="none" 
	d="
M436.716125,357.007233 
	C436.716125,353.184784 436.716125,349.861816 436.716125,346.171204 
	C441.029144,346.171204 445.233795,346.171204 449.684082,346.171204 
	C449.684082,367.041748 449.684082,387.939819 449.684082,409.164551 
	C445.610962,409.164551 441.528595,409.164551 436.716156,409.164551 
	C436.716156,391.935272 436.716156,374.720978 436.716125,357.007233 
z"/>
<path fill="#030303" opacity="1.000000" stroke="none" 
	d="
M600.021118,395.996948 
	C600.021118,400.638885 600.021118,404.784943 600.021118,409.206726 
	C595.710938,409.206726 591.630127,409.206726 587.217896,409.206726 
	C587.217896,393.646423 587.217896,378.128052 587.217896,362.298004 
	C591.018250,362.298004 594.928345,362.298004 599.058289,362.298004 
	C599.195862,363.795624 599.341125,365.376953 599.549988,367.650574 
	C603.669312,362.996979 608.067078,359.755219 614.601196,361.191559 
	C614.601196,365.339264 614.601196,369.559418 614.601196,374.057129 
	C613.199036,374.057129 611.906738,374.025696 610.616455,374.062347 
	C603.691284,374.259033 600.331482,377.522980 600.048096,384.535675 
	C599.900574,388.185242 600.021484,391.845581 600.021118,395.996948 
z"/>
<path fill="#242424" opacity="1.000000" stroke="none" 
	d="
M495.421753,470.019867 
	C495.381317,464.286682 495.381317,458.971497 495.381317,452.781036 
	C502.852081,452.923309 502.192596,460.884705 506.829437,463.742493 
	C506.829437,460.213318 506.829437,456.722015 506.829437,453.230713 
	C507.232880,452.957123 507.636322,452.683533 508.039764,452.409943 
	C508.910706,453.259186 510.485565,454.069855 510.534607,454.964203 
	C510.789185,459.607483 510.712769,464.273529 510.601868,468.928070 
	C510.581940,469.765045 509.767883,471.320953 509.479675,471.284576 
	C508.298248,471.135345 506.733215,470.825012 506.115509,469.982727 
	C503.824860,466.859436 501.853851,463.501709 498.992340,459.027405 
	C498.992340,463.240936 498.971802,465.994965 498.997833,468.748566 
	C499.027405,471.881866 497.800720,472.302673 495.421753,470.019867 
z"/>
<path fill="#191919" opacity="1.000000" stroke="none" 
	d="
M462.851135,443.180542 
	C460.522705,446.051819 459.098724,444.559814 457.792236,442.498505 
	C455.839661,439.417786 453.881195,436.340851 451.037323,431.864838 
	C451.037323,436.270569 451.156708,439.285736 450.961365,442.280396 
	C450.905975,443.129303 449.932404,443.918335 449.379944,444.734802 
	C448.820160,443.912506 447.799255,443.103119 447.775818,442.265778 
	C447.627777,436.971100 447.700714,431.670227 447.700714,426.452362 
	C452.025787,424.612671 452.582855,428.302124 454.072937,430.364349 
	C455.591370,432.465820 456.881683,434.732086 459.095612,438.226379 
	C459.095612,433.318970 459.095612,429.818420 459.095612,426.317871 
	C459.670502,426.071228 460.245361,425.824554 460.820251,425.577911 
	C461.514465,426.645203 462.755981,427.686707 462.807739,428.784271 
	C463.026917,433.434570 462.892639,438.101532 462.851135,443.180542 
z"/>
<path fill="#151515" opacity="1.000000" stroke="none" 
	d="
M529.900574,469.301025 
	C525.760193,471.711670 521.443298,473.048096 517.038208,470.951111 
	C512.735474,468.902893 512.381592,464.835876 512.738037,460.677124 
	C513.082458,456.658417 515.011536,453.822449 519.021118,452.626740 
	C523.946655,451.157898 527.535034,453.166748 528.596313,459.340668 
	C527.445374,458.574585 526.387451,457.456818 525.122375,457.122253 
	C523.061340,456.577148 519.612976,455.614777 518.973022,456.477539 
	C517.388916,458.612946 516.340942,461.726868 516.503540,464.359528 
	C516.601196,465.940674 519.230530,468.304718 520.990234,468.575806 
	C522.697693,468.838776 524.747925,466.876343 527.746521,465.321381 
	C524.239746,464.087952 522.468079,463.464813 520.696411,462.841675 
	C520.809204,462.364136 520.921997,461.886597 521.034790,461.409058 
	C523.726929,461.409058 526.419006,461.409058 529.900391,461.409058 
	C529.900391,463.719482 529.900391,466.299896 529.900574,469.301025 
z"/>
<path fill="#222222" opacity="1.000000" stroke="none" 
	d="
M477.996002,426.123138 
	C482.513947,426.057312 487.033752,425.900909 491.548492,425.992615 
	C492.608154,426.014099 493.650787,426.874207 494.701233,427.348450 
	C493.610321,427.947418 492.578705,428.828400 491.413422,429.073425 
	C489.979980,429.374847 488.327820,428.809937 486.969360,429.243530 
	C485.692383,429.651093 484.674591,430.870667 483.542755,431.732971 
	C483.808502,432.273834 484.074219,432.814667 484.339935,433.355530 
	C486.103760,433.355530 487.871796,433.280640 489.630157,433.378540 
	C491.115967,433.461243 492.590607,433.744232 494.688141,434.019745 
	C492.309082,436.428528 492.309082,436.428528 484.368958,436.875397 
	C484.368958,438.255859 484.368958,439.653473 484.368958,441.119598 
	C488.035919,441.356415 491.520935,441.581451 495.549377,441.841614 
	C492.961029,445.197052 492.176239,445.308319 481.110138,444.545471 
	C480.751678,439.218201 480.390442,433.850006 479.414093,428.264832 
	C478.531311,427.406250 478.263672,426.764709 477.996002,426.123138 
z"/>
<path fill="#151515" opacity="1.000000" stroke="none" 
	d="
M523.083740,428.093994 
	C527.345703,424.637054 531.591980,424.516418 535.645996,427.437256 
	C539.136475,429.951965 539.922546,435.747925 537.729248,440.193115 
	C535.681763,444.342896 532.130188,445.606567 527.792847,445.020264 
	C520.858765,444.082977 518.464539,435.981049 523.083740,428.093994 
M524.053589,436.281403 
	C524.540588,439.881927 526.367981,442.641846 530.178101,441.765717 
	C532.049622,441.335358 534.244202,438.953583 534.838989,437.010071 
	C536.167480,432.669098 534.156067,429.253571 530.722473,428.871460 
	C525.901978,428.334930 524.213013,431.194580 524.053589,436.281403 
z"/>
<path fill="#171717" opacity="1.000000" stroke="none" 
	d="
M497.011292,434.020447 
	C497.011383,431.237213 497.011383,428.936646 497.011383,426.014160 
	C500.700287,426.014160 504.131134,425.793823 507.519287,426.079651 
	C510.562073,426.336395 512.186829,428.255768 512.142212,431.469299 
	C512.083191,435.719940 512.127686,439.972015 512.127686,445.903198 
	C510.408142,444.240356 508.572662,443.262085 508.618378,442.381409 
	C508.935181,436.275574 505.230347,436.676361 500.687927,437.386536 
	C500.687927,439.000580 500.890839,440.640503 500.611176,442.193573 
	C500.445526,443.113434 499.517853,443.896027 498.932800,444.740326 
	C498.292084,443.817383 497.204498,442.942749 497.098572,441.962036 
	C496.832794,439.501282 497.011047,436.992584 497.011292,434.020447 
M502.405548,433.978851 
	C504.720551,433.570129 508.322784,435.496460 508.431274,431.280975 
	C508.449066,430.589844 504.561432,429.762634 502.451233,429.084015 
	C502.057251,428.957306 501.531616,429.239899 500.512268,429.445374 
	C500.855682,431.005066 501.177032,432.464600 502.405548,433.978851 
z"/>
<path fill="#0D0D0D" opacity="1.000000" stroke="none" 
	d="
M480.550629,468.486572 
	C478.565002,465.416931 476.802521,462.639252 475.040009,459.861572 
	C474.733307,459.893921 474.426575,459.926239 474.119873,459.958588 
	C474.119873,462.970001 474.235870,465.988770 474.044739,468.988007 
	C473.991669,469.820129 473.027161,470.594208 472.480804,471.394897 
	C471.968842,470.565430 471.036346,469.747253 471.013672,468.904602 
	C470.875732,463.777802 470.944855,458.645447 470.944855,452.794678 
	C478.089539,453.095673 477.469604,460.768616 482.397095,463.675873 
	C482.504761,461.256073 482.432617,459.082184 482.753021,456.967773 
	C482.978943,455.476379 483.737549,454.065704 484.258331,452.618988 
	C484.776855,452.789551 485.295349,452.960114 485.813873,453.130676 
	C485.813873,459.058868 485.813873,464.987030 485.813873,472.437134 
	C483.626587,470.849396 482.200195,469.813965 480.550629,468.486572 
z"/>
<path fill="#191919" opacity="1.000000" stroke="none" 
	d="
M535.880432,471.457214 
	C534.528076,470.431335 533.210449,469.763123 532.636292,468.695190 
	C532.104736,467.706451 532.368652,466.290070 532.282227,465.062042 
	C533.319214,465.650055 534.306580,466.363190 535.404236,466.798065 
	C537.258179,467.532623 539.150696,468.317108 541.095337,468.586182 
	C541.681030,468.667206 543.037476,467.113129 543.042786,466.301514 
	C543.047791,465.549652 541.847595,464.497162 540.947571,464.100861 
	C539.606873,463.510590 537.793335,463.762299 536.668884,462.966431 
	C534.940247,461.742950 532.212158,459.663177 532.448059,458.434357 
	C532.859985,456.288239 534.886597,453.427429 536.819397,452.863525 
	C539.111633,452.194702 542.179993,453.276306 544.584045,454.340271 
	C545.570251,454.776703 545.699219,457.150146 546.218140,458.642487 
	C545.744629,458.907593 545.271118,459.172699 544.797668,459.437805 
	C543.886169,458.468109 543.141235,457.057678 542.023010,456.635315 
	C540.470032,456.048645 538.633057,456.081757 536.927246,456.138733 
	C536.567871,456.150757 535.872192,457.949158 535.971619,458.019531 
	C537.090698,458.811188 538.307861,459.483765 539.555664,460.066284 
	C540.298462,460.413025 541.359741,460.310059 541.900696,460.814056 
	C543.671631,462.463745 546.811707,464.553955 546.572021,466.002808 
	C546.214844,468.162262 543.693665,470.340576 541.571167,471.688904 
	C540.312195,472.488647 538.050415,471.709625 535.880432,471.457214 
z"/>
<path fill="#121212" opacity="1.000000" stroke="none" 
	d="
M544.077332,425.958801 
	C546.709534,425.971039 549.198730,425.313690 550.941528,426.171936 
	C552.959839,427.165833 555.410828,429.307709 555.745178,431.278442 
	C556.470703,435.554688 555.968872,440.039185 555.968872,445.908447 
	C554.126709,444.224396 552.227051,443.243073 552.297607,442.433350 
	C552.886963,435.663971 548.533020,436.916412 544.826904,437.242462 
	C543.004761,439.561707 546.307617,443.786591 540.931091,445.233612 
	C540.931091,439.048004 540.840759,433.461182 541.048950,427.885498 
	C541.074097,427.212555 542.713257,426.599854 544.077332,425.958801 
M551.015320,429.319427 
	C548.912537,429.223206 546.809753,429.126984 544.452759,429.019135 
	C544.452759,430.810547 544.452759,432.193665 544.452759,433.552704 
	C551.857544,434.491791 552.073975,434.378723 551.015320,429.319427 
z"/>
<path fill="#1D1D1D" opacity="1.000000" stroke="none" 
	d="
M450.186401,468.530334 
	C450.186218,463.914398 450.028229,459.744232 450.290314,455.600647 
	C450.362305,454.462280 451.690399,453.403412 452.442078,452.308075 
	C452.957336,452.552216 453.472595,452.796326 453.987854,453.040466 
	C453.987854,457.961334 453.987854,462.882202 453.987854,467.615631 
	C457.372894,468.092743 460.271881,468.501312 463.170868,468.909912 
	C463.100861,469.653107 463.030884,470.396332 462.960876,471.139526 
	C458.978424,471.139526 454.994354,471.185974 451.016785,471.046692 
	C450.716492,471.036163 450.462524,469.703949 450.186401,468.530334 
z"/>
<path fill="#0D0D0D" opacity="1.000000" stroke="none" 
	d="
M477.535248,426.052734 
	C478.263672,426.764709 478.531311,427.406250 478.879822,428.297363 
	C477.217468,428.833618 475.474274,429.120331 473.267914,429.483246 
	C473.267914,433.544159 473.372742,437.650543 473.193298,441.744446 
	C473.149109,442.752625 472.178894,443.720245 471.634399,444.706543 
	C471.070160,443.764709 470.061707,442.842590 470.018921,441.877655 
	C469.837189,437.777557 469.941742,433.664795 469.941742,429.752014 
	C469.331604,429.415222 469.077576,429.233185 468.795105,429.126007 
	C467.201599,428.521515 465.601288,427.934998 464.003296,427.342346 
	C465.548370,426.884979 467.072418,426.150543 468.643188,426.031128 
	C471.438690,425.818604 474.262512,425.978302 477.535248,426.052734 
z"/>
<path fill="#222222" opacity="1.000000" stroke="none" 
	d="
M518.804932,440.572632 
	C518.133606,442.274933 517.462463,443.525024 516.791382,444.775085 
	C516.192932,443.645142 515.123047,442.533630 515.078003,441.382050 
	C514.885742,436.465393 514.996155,431.536865 514.996155,426.612671 
	C515.451355,426.325745 515.906555,426.038818 516.361755,425.751923 
	C517.175415,426.751617 518.610474,427.704041 518.690857,428.759583 
	C518.977600,432.527618 518.804260,436.330627 518.804932,440.572632 
z"/>
<path fill="#1D1D1D" opacity="1.000000" stroke="none" 
	d="
M489.027771,457.166138 
	C489.580688,455.403809 490.133484,454.118805 490.686279,452.833801 
	C491.402985,454.159668 492.641602,455.448883 492.737701,456.818298 
	C493.016296,460.788849 492.998016,464.802582 492.728241,468.774384 
	C492.655975,469.838104 491.267059,470.812378 490.482544,471.827728 
	C489.997589,471.546082 489.512604,471.264435 489.027649,470.982788 
	C489.027649,466.536346 489.027649,462.089874 489.027771,457.166138 
z"/>
<path fill="#222222" opacity="1.000000" stroke="none" 
	d="
M441.156006,440.587769 
	C441.156586,436.339325 440.994812,432.535950 441.256012,428.761810 
	C441.334991,427.619720 442.585236,426.558685 443.299011,425.460510 
	C443.862579,425.695587 444.426178,425.930664 444.989777,426.165741 
	C444.989777,431.237640 445.098206,436.313629 444.907593,441.378357 
	C444.864227,442.530731 443.786011,443.644226 443.184113,444.775604 
	C442.508087,443.531738 441.832031,442.287872 441.156006,440.587769 
z"/>
<path fill="#060606" opacity="1.000000" stroke="none" 
	d="
M465.104767,470.854218 
	C464.741150,465.501617 464.618866,460.518494 464.771393,455.543793 
	C464.798859,454.647827 465.957581,453.786560 466.594025,452.909271 
	C467.070862,453.771667 467.932465,454.622040 467.959778,455.498444 
	C468.099487,459.977203 468.150116,464.469543 467.907318,468.939484 
	C467.863617,469.744141 466.301331,470.466309 465.104767,470.854218 
z"/>
<path fill="#F9F9F9" opacity="1.000000" stroke="none" 
	d="
M399.010773,374.801270 
	C406.826324,370.554962 412.617737,372.668549 414.183228,380.878296 
	C414.999908,385.161224 414.124115,389.965637 413.131866,394.334442 
	C412.274933,398.107574 408.798279,399.721527 405.048035,399.660370 
	C401.123688,399.596375 397.865082,397.772736 396.563232,393.917175 
	C394.356049,387.380371 394.327545,380.938324 399.010773,374.801270 
z"/>
<path fill="#F8F8F8" opacity="1.000000" stroke="none" 
	d="
M471.430145,392.847046 
	C476.169342,390.750824 480.675659,388.989655 485.629669,387.053497 
	C486.437744,392.081787 486.939911,396.560638 482.722992,398.811096 
	C479.989197,400.270081 476.184875,400.441071 473.041443,399.972748 
	C472.110168,399.833984 471.794830,395.560791 471.430145,392.847046 
z"/>
<path fill="#F8F8F8" opacity="1.000000" stroke="none" 
	d="
M524.041443,435.877563 
	C524.213013,431.194580 525.901978,428.334930 530.722473,428.871460 
	C534.156067,429.253571 536.167480,432.669098 534.838989,437.010071 
	C534.244202,438.953583 532.049622,441.335358 530.178101,441.765717 
	C526.367981,442.641846 524.540588,439.881927 524.041443,435.877563 
z"/>
<path fill="#F8F8F8" opacity="1.000000" stroke="none" 
	d="
M501.951965,433.951477 
	C501.177032,432.464600 500.855682,431.005066 500.512268,429.445374 
	C501.531616,429.239899 502.057251,428.957306 502.451233,429.084015 
	C504.561432,429.762634 508.449066,430.589844 508.431274,431.280975 
	C508.322784,435.496460 504.720551,433.570129 501.951965,433.951477 
z"/>
<path fill="#F8F8F8" opacity="1.000000" stroke="none" 
	d="
M551.344604,429.614288 
	C552.073975,434.378723 551.857544,434.491791 544.452759,433.552704 
	C544.452759,432.193665 544.452759,430.810547 544.452759,429.019135 
	C546.809753,429.126984 548.912537,429.223206 551.344604,429.614288 
z"/>
</svg>